999
dxfrw 0.6.3
  0
SECTION
  2
HEADER
  9
$ACADVER
  1
AC1021
  9
$DWGCODEPAGE
  3
ANSI_1252
  9
$INSBASE
 10
0
 20
0
 30
0
  9
$EXTMIN
 10
160
 20
-58.87352689845069
 30
0
  9
$EXTMAX
 10
400
 20
77.8125
 30
0
  9
$LIMMIN
 10
0
 20
0
  9
$LIMMAX
 10
420
 20
297
  9
$ORTHOMODE
 70
    0
  9
$REGENMODE
 70
    1
  9
$FILLMODE
 70
    1
  9
$QTEXTMODE
 70
    0
  9
$MIRRTEXT
 70
    0
  9
$LTSCALE
 40
1
  9
$ATTMODE
 70
    0
  9
$TEXTSIZE
 40
2.5
  9
$TRACEWID
 40
15.68
  9
$TEXTSTYLE
  7
STANDARD
  9
$CLAYER
  8
points_pos
  9
$CELTYPE
  6
BYLAYER
  9
$CECOLOR
 62
  256
  9
$CELTSCALE
 40
1
  9
$DISPSILH
 70
    0
  9
$DIMSCALE
 40
2.5
  9
$DIMASZ
 40
2.5
  9
$DIMEXO
 40
0.625
  9
$DIMDLI
 40
3.75
  9
$DIMRND
 40
0
  9
$DIMDLE
 40
0
  9
$DIMEXE
 40
1.25
  9
$DIMTP
 40
0
  9
$DIMTM
 40
0
  9
$DIMTXT
 40
2.5
  9
$DIMCEN
 40
2.5
  9
$DIMTSZ
 40
0
  9
$DIMTOL
 70
    0
  9
$DIMLIM
 70
    0
  9
$DIMTIH
 70
    0
  9
$DIMTOH
 70
    0
  9
$DIMSE1
 70
    0
  9
$DIMSE2
 70
    0
  9
$DIMTAD
 70
    1
  9
$DIMZIN
 70
    8
  9
$DIMBLK
  1

  9
$DIMASO
 70
    1
  9
$DIMSHO
 70
    1
  9
$DIMPOST
  1

  9
$DIMAPOST
  1

  9
$DIMALT
 70
    0
  9
$DIMALTD
 70
    3
  9
$DIMALTF
 40
0.03937
  9
$DIMLFAC
 40
1
  9
$DIMTOFL
 70
    1
  9
$DIMTVP
 40
0
  9
$DIMTIX
 70
    0
  9
$DIMSOXD
 70
    0
  9
$DIMSAH
 70
    0
  9
$DIMBLK1
  1

  9
$DIMBLK2
  1

  9
$DIMSTYLE
  2
STANDARD
  9
$DIMCLRD
 70
    0
  9
$DIMCLRE
 70
    0
  9
$DIMCLRT
 70
    0
  9
$DIMTFAC
 40
1
  9
$DIMGAP
 40
0.625
  9
$DIMJUST
 70
    0
  9
$DIMSD1
 70
    0
  9
$DIMSD2
 70
    0
  9
$DIMTOLJ
 70
    0
  9
$DIMTZIN
 70
    8
  9
$DIMALTZ
 70
    0
  9
$DIMALTTZ
 70
    0
  9
$DIMUPT
 70
    0
  9
$DIMDEC
 70
    2
  9
$DIMTDEC
 70
    2
  9
$DIMALTU
 70
    2
  9
$DIMALTTD
 70
    3
  9
$DIMTXSTY
  7
standard
  9
$DIMAUNIT
 70
    0
  9
$DIMADEC
 70
    0
  9
$DIMALTRND
 40
0
  9
$DIMAZIN
 70
    0
  9
$DIMDSEP
 70
   44
  9
$DIMATFIT
 70
    3
  9
$DIMFRAC
 70
    0
  9
$DIMLDRBLK
  1
STANDARD
  9
$DIMLUNIT
 70
    2
  9
$DIMLWD
 70
   -2
  9
$DIMLWE
 70
   -2
  9
$DIMTMOVE
 70
    0
  9
$DIMFXL
 40
1
  9
$DIMFXLON
 70
    0
  9
$DIMJOGANG
 40
0.7854
  9
$DIMTFILL
 70
    0
  9
$DIMTFILLCLR
 70
    0
  9
$DIMARCSYM
 70
    0
  9
$DIMLTYPE
  6

  9
$DIMLTEX1
  6

  9
$DIMLTEX2
  6

  9
$LUNITS
 70
    2
  9
$LUPREC
 70
    4
  9
$SKETCHINC
 40
1
  9
$FILLETRAD
 40
0
  9
$AUNITS
 70
    0
  9
$AUPREC
 70
    2
  9
$MENU
  1
.
  9
$ELEVATION
 40
0
  9
$PELEVATION
 40
0
  9
$THICKNESS
 40
0
  9
$LIMCHECK
 70
    0
  9
$CHAMFERA
 40
0
  9
$CHAMFERB
 40
0
  9
$CHAMFERC
 40
0
  9
$CHAMFERD
 40
0
  9
$SKPOLY
 70
    0
  9
$USRTIMER
 70
    1
  9
$ANGBASE
 50
0
  9
$ANGDIR
 70
    0
  9
$PDMODE
 70
    2
  9
$PDSIZE
 40
0
  9
$PLINEWID
 40
0
  9
$SPLFRAME
 70
    0
  9
$SPLINETYPE
 70
    2
  9
$SPLINESEGS
 70
    8
  9
$HANDSEED
  5
20000
  9
$SURFTAB1
 70
    6
  9
$SURFTAB2
 70
    6
  9
$SURFTYPE
 70
    6
  9
$SURFU
 70
    6
  9
$SURFV
 70
    6
  9
$UCSBASE
  2

  9
$UCSNAME
  2

  9
$UCSORG
 10
0
 20
0
 30
0
  9
$UCSXDIR
 10
1
 20
0
 30
0
  9
$UCSYDIR
 10
0
 20
1
 30
0
  9
$UCSORTHOREF
  2

  9
$UCSORTHOVIEW
 70
    0
  9
$UCSORGTOP
 10
0
 20
0
 30
0
  9
$UCSORGBOTTOM
 10
0
 20
0
 30
0
  9
$UCSORGLEFT
 10
0
 20
0
 30
0
  9
$UCSORGRIGHT
 10
0
 20
0
 30
0
  9
$UCSORGFRONT
 10
0
 20
0
 30
0
  9
$UCSORGBACK
 10
0
 20
0
 30
0
  9
$PUCSBASE
  2

  9
$PUCSNAME
  2

  9
$PUCSORG
 10
0
 20
0
 30
0
  9
$PUCSXDIR
 10
1
 20
0
 30
0
  9
$PUCSYDIR
 10
0
 20
1
 30
0
  9
$PUCSORTHOREF
  2

  9
$PUCSORTHOVIEW
 70
    0
  9
$PUCSORGTOP
 10
0
 20
0
 30
0
  9
$PUCSORGBOTTOM
 10
0
 20
0
 30
0
  9
$PUCSORGLEFT
 10
0
 20
0
 30
0
  9
$PUCSORGRIGHT
 10
0
 20
0
 30
0
  9
$PUCSORGFRONT
 10
0
 20
0
 30
0
  9
$PUCSORGBACK
 10
0
 20
0
 30
0
  9
$USERI1
 70
    0
  9
$USERI2
 70
    0
  9
$USERI3
 70
    0
  9
$USERI4
 70
    0
  9
$USERI5
 70
    0
  9
$USERR1
 40
0
  9
$USERR2
 40
0
  9
$USERR3
 40
0
  9
$USERR4
 40
0
  9
$USERR5
 40
0
  9
$WORLDVIEW
 70
    1
  9
$SHADEDGE
 70
    3
  9
$SHADEDIF
 70
   70
  9
$TILEMODE
 70
    1
  9
$MAXACTVP
 70
   64
  9
$PINSBASE
 10
-198
 20
93.28151039341638
 30
0
  9
$PLIMCHECK
 70
    0
  9
$PEXTMIN
 10
0
 20
0
 30
0
  9
$PEXTMAX
 10
0
 20
0
 30
0
  9
$GRIDMODE
 70
    1
  9
$SNAPSTYLE
 70
    0
  9
$GRIDUNIT
 10
0
 20
0
  9
$PLIMMIN
 10
0
 20
0
  9
$PLIMMAX
 10
297
 20
210
  9
$UNITMODE
 70
    0
  9
$VISRETAIN
 70
    1
  9
$PLINEGEN
 70
    0
  9
$PSLTSCALE
 70
    1
  9
$TREEDEPTH
 70
 3020
  9
$CMLSTYLE
  2
Standard
  9
$CMLJUST
 70
    0
  9
$CMLSCALE
 40
20
  9
$PROXYGRAPHICS
 70
    1
  9
$MEASUREMENT
 70
    1
  9
$CELWEIGHT
370
   -1
  9
$ENDCAPS
280
    0
  9
$JOINSTYLE
280
    0
  9
$LWDISPLAY
290
    0
  9
$INSUNITS
 70
    0
  9
$HYPERLINKBASE
  1

  9
$STYLESHEET
  1

  9
$XEDIT
290
    1
  9
$CEPSNTYPE
380
    0
  9
$PSTYLEMODE
290
    1
  9
$EXTNAMES
290
    1
  9
$PSVPSCALE
 40
1.2375
  9
$OLESTARTUP
290
    0
  9
$SORTENTS
280
  127
  9
$INDEXCTL
280
    0
  9
$HIDETEXT
280
    1
  9
$XCLIPFRAME
290
    0
  9
$HALOGAP
280
    0
  9
$OBSCOLOR
 70
  257
  9
$OBSLTYPE
280
    0
  9
$INTERSECTIONDISPLAY
280
    0
  9
$INTERSECTIONCOLOR
 70
  257
  9
$DIMASSOC
280
    1
  9
$PROJECTNAME
  1

  9
$CAMERADISPLAY
290
    0
  9
$LENSLENGTH
 40
50
  9
$CAMERAHEIGHT
 40
0
  9
$STEPSPERSEC
 40
2
  9
$STEPSIZE
 40
50
  9
$3DDWFPREC
 40
2
  9
$PSOLWIDTH
 40
5
  9
$PSOLHEIGHT
 40
80
  9
$LOFTANG1
 40
1.570796326794897
  9
$LOFTANG2
 40
1.570796326794897
  9
$LOFTMAG1
 40
0
  9
$LOFTMAG2
 40
0
  9
$LOFTPARAM
 70
    7
  9
$LOFTNORMALS
280
    1
  9
$LATITUDE
 40
1
  9
$LONGITUDE
 40
1
  9
$NORTHDIRECTION
 40
0
  9
$TIMEZONE
 70
-8000
  9
$LIGHTGLYPHDISPLAY
280
    1
  9
$TILEMODELIGHTSYNCH
280
    1
  9
$SOLIDHIST
280
    1
  9
$SHOWHIST
280
    1
  9
$DWFFRAME
280
    2
  9
$DGNFRAME
280
    0
  9
$REALWORLDSCALE
290
    1
  9
$INTERFERECOLOR
 62
    1
  9
$CSHADOW
280
    0
  9
$SHADOWPLANELOCATION
 40
0
  0
ENDSEC
  0
SECTION
  2
CLASSES
  0
ENDSEC
  0
SECTION
  2
TABLES
  0
TABLE
  2
VPORT
  5
8
330
0
100
AcDbSymbolTable
 70
    1
  0
VPORT
  5
31
330
2
100
AcDbSymbolTableRecord
100
AcDbViewportTableRecord
  2
*ACTIVE
 70
    0
 10
0
 20
0
 11
1
 21
1
 12
263.0582849581768
 22
62.77699152250914
 13
0
 23
0
 14
10
 24
10
 15
10
 25
10
 16
0
 26
0
 36
1
 17
0
 27
0
 37
0
 40
252.0155852445789
 41
1.779111644657863
 42
50
 43
0
 44
0
 50
0
 51
0
 71
    0
 72
  100
 73
    1
 74
    3
 75
    0
 76
    1
 77
    0
 78
    0
281
    0
 65
    1
110
0
120
0
130
0
111
1
121
0
131
0
112
0
122
1
132
0
 79
    0
146
0
348
10020
 60
    7
 61
    5
292
1
282
    1
141
0
142
0
 63
  250
421
3358443
  0
ENDTAB
  0
TABLE
  2
LTYPE
  5
5
330
0
100
AcDbSymbolTable
 70
    4
  0
LTYPE
  5
14
330
5
100
AcDbSymbolTableRecord
100
AcDbLinetypeTableRecord
  2
ByBlock
 70
    0
  3

 72
   65
 73
    0
 40
0
  0
LTYPE
  5
15
330
5
100
AcDbSymbolTableRecord
100
AcDbLinetypeTableRecord
  2
ByLayer
 70
    0
  3

 72
   65
 73
    0
 40
0
  0
LTYPE
  5
16
330
5
100
AcDbSymbolTableRecord
100
AcDbLinetypeTableRecord
  2
Continuous
 70
    0
  3
Solid line
 72
   65
 73
    0
 40
0
  0
LTYPE
  5
32
330
5
100
AcDbSymbolTableRecord
100
AcDbLinetypeTableRecord
  2
DOT
 70
    0
  3
Dot . . . . . . . . . . . . . . . . . . . . . .
 72
   65
 73
    2
 40
6.35
 49
0
 74
    0
 49
-6.35
 74
    0
  0
LTYPE
  5
33
330
5
100
AcDbSymbolTableRecord
100
AcDbLinetypeTableRecord
  2
DOTTINY
 70
    0
  3
Dot (.15x) .....................................
 72
   65
 73
    2
 40
0.9525
 49
0
 74
    0
 49
-0.9525
 74
    0
  0
LTYPE
  5
34
330
5
100
AcDbSymbolTableRecord
100
AcDbLinetypeTableRecord
  2
DOT2
 70
    0
  3
Dot (.5x) .....................................
 72
   65
 73
    2
 40
3.175
 49
0
 74
    0
 49
-3.175
 74
    0
  0
LTYPE
  5
35
330
5
100
AcDbSymbolTableRecord
100
AcDbLinetypeTableRecord
  2
DOTX2
 70
    0
  3
Dot (2x) .  .  .  .  .  .  .  .  .  .  .  .  .
 72
   65
 73
    2
 40
12.7
 49
0
 74
    0
 49
-12.7
 74
    0
  0
LTYPE
  5
36
330
5
100
AcDbSymbolTableRecord
100
AcDbLinetypeTableRecord
  2
DASHED
 70
    0
  3
Dashed _ _ _ _ _ _ _ _ _ _ _ _ _ _ _ _ _
 72
   65
 73
    2
 40
19.05
 49
12.7
 74
    0
 49
-6.35
 74
    0
  0
LTYPE
  5
37
330
5
100
AcDbSymbolTableRecord
100
AcDbLinetypeTableRecord
  2
DASHEDTINY
 70
    0
  3
Dashed (.15x) _ _ _ _ _ _ _ _ _ _ _ _ _ _ _ _ _
 72
   65
 73
    2
 40
2.8575
 49
1.905
 74
    0
 49
-0.9525
 74
    0
  0
LTYPE
  5
38
330
5
100
AcDbSymbolTableRecord
100
AcDbLinetypeTableRecord
  2
DASHED2
 70
    0
  3
Dashed (.5x) _ _ _ _ _ _ _ _ _ _ _ _ _ _ _ _ _
 72
   65
 73
    2
 40
9.524999999999999
 49
6.35
 74
    0
 49
-3.175
 74
    0
  0
LTYPE
  5
39
330
5
100
AcDbSymbolTableRecord
100
AcDbLinetypeTableRecord
  2
DASHEDX2
 70
    0
  3
Dashed (2x) ____  ____  ____  ____  ____  ___
 72
   65
 73
    2
 40
38.09999999999999
 49
25.4
 74
    0
 49
-12.7
 74
    0
  0
LTYPE
  5
3A
330
5
100
AcDbSymbolTableRecord
100
AcDbLinetypeTableRecord
  2
DASHDOT
 70
    0
  3
Dash dot __ . __ . __ . __ . __ . __ . __ . __
 72
   65
 73
    4
 40
25.4
 49
12.7
 74
    0
 49
-6.35
 74
    0
 49
0
 74
    0
 49
-6.35
 74
    0
  0
LTYPE
  5
3B
330
5
100
AcDbSymbolTableRecord
100
AcDbLinetypeTableRecord
  2
DASHDOTTINY
 70
    0
  3
Dash dot (.15x) _._._._._._._._._._._._._._._.
 72
   65
 73
    4
 40
3.81
 49
1.905
 74
    0
 49
-0.9525
 74
    0
 49
0
 74
    0
 49
-0.9525
 74
    0
  0
LTYPE
  5
3C
330
5
100
AcDbSymbolTableRecord
100
AcDbLinetypeTableRecord
  2
DASHDOT2
 70
    0
  3
Dash dot (.5x) _._._._._._._._._._._._._._._.
 72
   65
 73
    4
 40
12.7
 49
6.35
 74
    0
 49
-3.175
 74
    0
 49
0
 74
    0
 49
-3.175
 74
    0
  0
LTYPE
  5
3D
330
5
100
AcDbSymbolTableRecord
100
AcDbLinetypeTableRecord
  2
DASHDOTX2
 70
    0
  3
Dash dot (2x) ____  .  ____  .  ____  .  ___
 72
   65
 73
    4
 40
50.8
 49
25.4
 74
    0
 49
-12.7
 74
    0
 49
0
 74
    0
 49
-12.7
 74
    0
  0
LTYPE
  5
3E
330
5
100
AcDbSymbolTableRecord
100
AcDbLinetypeTableRecord
  2
DIVIDE
 70
    0
  3
Divide ____ . . ____ . . ____ . . ____ . . ____
 72
   65
 73
    6
 40
31.75
 49
12.7
 74
    0
 49
-6.35
 74
    0
 49
0
 74
    0
 49
-6.35
 74
    0
 49
0
 74
    0
 49
-6.35
 74
    0
  0
LTYPE
  5
3F
330
5
100
AcDbSymbolTableRecord
100
AcDbLinetypeTableRecord
  2
DIVIDETINY
 70
    0
  3
Divide (.15x) __..__..__..__..__..__..__..__.._
 72
   65
 73
    6
 40
4.7625
 49
1.905
 74
    0
 49
-0.9525
 74
    0
 49
0
 74
    0
 49
-0.9525
 74
    0
 49
0
 74
    0
 49
-0.9525
 74
    0
  0
LTYPE
  5
40
330
5
100
AcDbSymbolTableRecord
100
AcDbLinetypeTableRecord
  2
DIVIDE2
 70
    0
  3
Divide (.5x) __..__..__..__..__..__..__..__.._
 72
   65
 73
    6
 40
15.875
 49
6.35
 74
    0
 49
-3.175
 74
    0
 49
0
 74
    0
 49
-3.175
 74
    0
 49
0
 74
    0
 49
-3.175
 74
    0
  0
LTYPE
  5
41
330
5
100
AcDbSymbolTableRecord
100
AcDbLinetypeTableRecord
  2
DIVIDEX2
 70
    0
  3
Divide (2x) ________  .  .  ________  .  .  _
 72
   65
 73
    6
 40
63.5
 49
25.4
 74
    0
 49
-12.7
 74
    0
 49
0
 74
    0
 49
-12.7
 74
    0
 49
0
 74
    0
 49
-12.7
 74
    0
  0
LTYPE
  5
42
330
5
100
AcDbSymbolTableRecord
100
AcDbLinetypeTableRecord
  2
BORDER
 70
    0
  3
Border __ __ . __ __ . __ __ . __ __ . __ __ .
 72
   65
 73
    6
 40
44.45
 49
12.7
 74
    0
 49
-6.35
 74
    0
 49
12.7
 74
    0
 49
-6.35
 74
    0
 49
0
 74
    0
 49
-6.35
 74
    0
  0
LTYPE
  5
43
330
5
100
AcDbSymbolTableRecord
100
AcDbLinetypeTableRecord
  2
BORDERTINY
 70
    0
  3
Border (.15x) __.__.__.__.__.__.__.__.__.__.__.
 72
   65
 73
    6
 40
6.6675
 49
1.905
 74
    0
 49
-0.9525
 74
    0
 49
1.905
 74
    0
 49
-0.9525
 74
    0
 49
0
 74
    0
 49
-0.9525
 74
    0
  0
LTYPE
  5
44
330
5
100
AcDbSymbolTableRecord
100
AcDbLinetypeTableRecord
  2
BORDER2
 70
    0
  3
Border (.5x) __.__.__.__.__.__.__.__.__.__.__.
 72
   65
 73
    6
 40
22.225
 49
6.35
 74
    0
 49
-3.175
 74
    0
 49
6.35
 74
    0
 49
-3.175
 74
    0
 49
0
 74
    0
 49
-3.175
 74
    0
  0
LTYPE
  5
45
330
5
100
AcDbSymbolTableRecord
100
AcDbLinetypeTableRecord
  2
BORDERX2
 70
    0
  3
Border (2x) ____  ____  .  ____  ____  .  ___
 72
   65
 73
    6
 40
88.89999999999999
 49
25.4
 74
    0
 49
-12.7
 74
    0
 49
25.4
 74
    0
 49
-12.7
 74
    0
 49
0
 74
    0
 49
-12.7
 74
    0
  0
LTYPE
  5
46
330
5
100
AcDbSymbolTableRecord
100
AcDbLinetypeTableRecord
  2
CENTER
 70
    0
  3
Center ____ _ ____ _ ____ _ ____ _ ____ _ ____
 72
   65
 73
    4
 40
50.8
 49
31.75
 74
    0
 49
-6.35
 74
    0
 49
6.35
 74
    0
 49
-6.35
 74
    0
  0
LTYPE
  5
47
330
5
100
AcDbSymbolTableRecord
100
AcDbLinetypeTableRecord
  2
CENTERTINY
 70
    0
  3
Center (.15x) ___ _ ___ _ ___ _ ___ _ ___ _ ___
 72
   65
 73
    4
 40
7.619999999999999
 49
4.7625
 74
    0
 49
-0.9525
 74
    0
 49
0.9525
 74
    0
 49
-0.9525
 74
    0
  0
LTYPE
  5
48
330
5
100
AcDbSymbolTableRecord
100
AcDbLinetypeTableRecord
  2
CENTER2
 70
    0
  3
Center (.5x) ___ _ ___ _ ___ _ ___ _ ___ _ ___
 72
   65
 73
    4
 40
28.575
 49
19.05
 74
    0
 49
-3.175
 74
    0
 49
3.175
 74
    0
 49
-3.175
 74
    0
  0
LTYPE
  5
49
330
5
100
AcDbSymbolTableRecord
100
AcDbLinetypeTableRecord
  2
CENTERX2
 70
    0
  3
Center (2x) ________  __  ________  __  _____
 72
   65
 73
    4
 40
101.6
 49
63.5
 74
    0
 49
-12.7
 74
    0
 49
12.7
 74
    0
 49
-12.7
 74
    0
  0
ENDTAB
  0
TABLE
  2
LAYER
  5
2
330
0
100
AcDbSymbolTable
 70
    1
  0
LAYER
  5
10
330
2
100
AcDbSymbolTableRecord
100
AcDbLayerTableRecord
  2
0
 70
    0
 62
    7
  6
CONTINUOUS
370
   40
390
F
  0
LAYER
  5
4A
330
2
100
AcDbSymbolTableRecord
100
AcDbLayerTableRecord
  2
coordinates
 70
    0
 62
    6
  6
DASHED
370
    9
390
F
  0
LAYER
  5
4B
330
2
100
AcDbSymbolTableRecord
100
AcDbLayerTableRecord
  2
dim
 70
    0
 62
    5
  6
CONTINUOUS
370
    9
390
F
  0
LAYER
  5
4C
330
2
100
AcDbSymbolTableRecord
100
AcDbLayerTableRecord
  2
dim-coordinate+
 70
    1
 62
    1
  6
CONTINUOUS
370
    9
390
F
  0
LAYER
  5
4D
330
2
100
AcDbSymbolTableRecord
100
AcDbLayerTableRecord
  2
points_pos
 70
    1
 62
    1
  6
CONTINUOUS
370
    9
390
F
  0
ENDTAB
  0
TABLE
  2
STYLE
  5
3
330
0
100
AcDbSymbolTable
 70
    3
  0
STYLE
  5
4E
330
2
100
AcDbSymbolTableRecord
100
AcDbTextStyleTableRecord
  2
standard
 70
    0
 40
0
 41
1
 50
0
 71
    0
 42
1
  3
standard
  4

  0
ENDTAB
  0
TABLE
  2
VIEW
  5
6
330
0
100
AcDbSymbolTable
 70
    0
  0
ENDTAB
  0
TABLE
  2
UCS
  5
7
330
0
100
AcDbSymbolTable
 70
    0
  0
ENDTAB
  0
TABLE
  2
APPID
  5
9
330
0
100
AcDbSymbolTable
 70
    1
  0
APPID
  5
12
330
9
100
AcDbSymbolTableRecord
100
AcDbRegAppTableRecord
  2
ACAD
 70
    0
  0
APPID
  5
4F
330
9
100
AcDbSymbolTableRecord
100
AcDbRegAppTableRecord
  2
LibreCad
 70
    0
  0
ENDTAB
  0
TABLE
  2
DIMSTYLE
  5
A
330
0
100
AcDbSymbolTable
 70
    1
100
AcDbDimStyleTable
 71
    1
  0
DIMSTYLE
105
50
330
A
100
AcDbSymbolTableRecord
100
AcDbDimStyleTableRecord
  2
Standard
 70
    0
 40
2.5
 41
2.5
 42
0.625
 43
0.38
 44
1.25
 45
0
 46
0
 47
0
 48
0
 49
1
140
2.5
141
0.09
142
0
143
25.4
144
1
145
0
146
1
147
0.625
148
0
 71
    0
 72
    0
 73
    0
 74
    1
 75
    0
 76
    0
 77
    0
 78
    8
 79
    0
170
    0
171
    2
172
    0
173
    0
174
    0
175
    0
176
    0
177
    0
178
    0
179
    0
271
    2
272
    4
273
    2
274
    2
275
    0
276
    0
277
    2
278
   44
279
    0
280
    0
281
    0
282
    0
283
    1
284
    0
285
    0
286
    0
288
    0
289
    3
340
4E
  0
ENDTAB
  0
TABLE
  2
BLOCK_RECORD
  5
1
330
0
100
AcDbSymbolTable
 70
    2
  0
BLOCK_RECORD
  5
1F
330
1
100
AcDbSymbolTableRecord
100
AcDbBlockTableRecord
  2
*Model_Space
 70
    0
280
    1
281
    0
  0
BLOCK_RECORD
  5
1E
330
1
100
AcDbSymbolTableRecord
100
AcDbBlockTableRecord
  2
*Paper_Space
 70
    0
280
    1
281
    0
  0
BLOCK_RECORD
  5
51
330
1
100
AcDbSymbolTableRecord
100
AcDbBlockTableRecord
  2
*D16
 70
    0
280
    1
281
    0
  0
BLOCK_RECORD
  5
54
330
1
100
AcDbSymbolTableRecord
100
AcDbBlockTableRecord
  2
*D14
 70
    0
280
    1
281
    0
  0
BLOCK_RECORD
  5
57
330
1
100
AcDbSymbolTableRecord
100
AcDbBlockTableRecord
  2
*D19
 70
    0
280
    1
281
    0
  0
BLOCK_RECORD
  5
5A
330
1
100
AcDbSymbolTableRecord
100
AcDbBlockTableRecord
  2
*D11
 70
    0
280
    1
281
    0
  0
BLOCK_RECORD
  5
5D
330
1
100
AcDbSymbolTableRecord
100
AcDbBlockTableRecord
  2
*D10
 70
    0
280
    1
281
    0
  0
BLOCK_RECORD
  5
60
330
1
100
AcDbSymbolTableRecord
100
AcDbBlockTableRecord
  2
*D8
 70
    0
280
    1
281
    0
  0
BLOCK_RECORD
  5
63
330
1
100
AcDbSymbolTableRecord
100
AcDbBlockTableRecord
  2
*D13
 70
    0
280
    1
281
    0
  0
BLOCK_RECORD
  5
66
330
1
100
AcDbSymbolTableRecord
100
AcDbBlockTableRecord
  2
*D18
 70
    0
280
    1
281
    0
  0
BLOCK_RECORD
  5
69
330
1
100
AcDbSymbolTableRecord
100
AcDbBlockTableRecord
  2
*D1
 70
    0
280
    1
281
    0
  0
BLOCK_RECORD
  5
6C
330
1
100
AcDbSymbolTableRecord
100
AcDbBlockTableRecord
  2
*D2
 70
    0
280
    1
281
    0
  0
BLOCK_RECORD
  5
6F
330
1
100
AcDbSymbolTableRecord
100
AcDbBlockTableRecord
  2
*D7
 70
    0
280
    1
281
    0
  0
BLOCK_RECORD
  5
72
330
1
100
AcDbSymbolTableRecord
100
AcDbBlockTableRecord
  2
*D6
 70
    0
280
    1
281
    0
  0
BLOCK_RECORD
  5
75
330
1
100
AcDbSymbolTableRecord
100
AcDbBlockTableRecord
  2
*D15
 70
    0
280
    1
281
    0
  0
BLOCK_RECORD
  5
78
330
1
100
AcDbSymbolTableRecord
100
AcDbBlockTableRecord
  2
*D12
 70
    0
280
    1
281
    0
  0
BLOCK_RECORD
  5
7B
330
1
100
AcDbSymbolTableRecord
100
AcDbBlockTableRecord
  2
*D9
 70
    0
280
    1
281
    0
  0
BLOCK_RECORD
  5
7E
330
1
100
AcDbSymbolTableRecord
100
AcDbBlockTableRecord
  2
*D5
 70
    0
280
    1
281
    0
  0
BLOCK_RECORD
  5
81
330
1
100
AcDbSymbolTableRecord
100
AcDbBlockTableRecord
  2
*D17
 70
    0
280
    1
281
    0
  0
BLOCK_RECORD
  5
84
330
1
100
AcDbSymbolTableRecord
100
AcDbBlockTableRecord
  2
*D4
 70
    0
280
    1
281
    0
  0
BLOCK_RECORD
  5
87
330
1
100
AcDbSymbolTableRecord
100
AcDbBlockTableRecord
  2
*D3
 70
    0
280
    1
281
    0
  0
ENDTAB
  0
ENDSEC
  0
SECTION
  2
BLOCKS
  0
BLOCK
  5
20
330
1F
100
AcDbEntity
  8
0
100
AcDbBlockBegin
  2
*Model_Space
 70
    0
 10
0
 20
0
 30
0
  3
*Model_Space
  1

  0
ENDBLK
  5
21
330
1F
100
AcDbEntity
  8
0
100
AcDbBlockEnd
  0
BLOCK
  5
1C
330
1B
100
AcDbEntity
  8
0
100
AcDbBlockBegin
  2
*Paper_Space
 70
    0
 10
0
 20
0
 30
0
  3
*Paper_Space
  1

  0
ENDBLK
  5
1D
330
1F
100
AcDbEntity
  8
0
100
AcDbBlockEnd
  0
BLOCK
  5
52
330
51
100
AcDbEntity
  8
0
100
AcDbBlockBegin
  2
*D16
 70
    1
 10
0
 20
0
  3
*D16
  1

  0
LINE
  5
8A
100
AcDbEntity
  8
points_pos
  6
CONTINUOUS
 62
    7
370
    0
100
AcDbLine
 10
240
 20
50
 11
230
 21
40
  0
SOLID
  5
8B
100
AcDbEntity
  8
points_pos
  6
CONTINUOUS
 62
    7
370
    0
100
AcDbTrace
 10
240
 20
50
 30
0
 11
236.3164768786218
 21
44.84468835654634
 31
0
 12
234.8446883565463
 22
46.31647687862182
 32
0
 13
234.8446883565463
 23
46.31647687862182
 33
0
  0
LINE
  5
8C
100
AcDbEntity
  8
points_pos
  6
CONTINUOUS
 62
    7
370
    0
100
AcDbLine
 10
230
 20
40
 11
220
 21
40
  0
ENDBLK
  5
53
330
51
100
AcDbEntity
  8
0
100
AcDbBlockEnd
  0
BLOCK
  5
55
330
54
100
AcDbEntity
  8
0
100
AcDbBlockBegin
  2
*D14
 70
    1
 10
0
 20
0
  3
*D14
  1

  0
LINE
  5
8D
100
AcDbEntity
  8
points_pos
  6
CONTINUOUS
 62
    7
370
    0
100
AcDbLine
 10
380
 20
50
 11
370
 21
40
  0
SOLID
  5
8E
100
AcDbEntity
  8
points_pos
  6
CONTINUOUS
 62
    7
370
    0
100
AcDbTrace
 10
380
 20
50
 30
0
 11
376.3164768786218
 21
44.84468835654634
 31
0
 12
374.8446883565463
 22
46.31647687862182
 32
0
 13
374.8446883565463
 23
46.31647687862182
 33
0
  0
LINE
  5
8F
100
AcDbEntity
  8
points_pos
  6
CONTINUOUS
 62
    7
370
    0
100
AcDbLine
 10
370
 20
40
 11
350
 21
40
  0
ENDBLK
  5
56
330
54
100
AcDbEntity
  8
0
100
AcDbBlockEnd
  0
BLOCK
  5
58
330
57
100
AcDbEntity
  8
0
100
AcDbBlockBegin
  2
*D19
 70
    1
 10
0
 20
0
  3
*D19
  1

  0
LINE
  5
90
100
AcDbEntity
  8
points_pos
  6
CONTINUOUS
 62
    7
370
    0
100
AcDbLine
 10
240
 20
0
 11
230
 21
10
  0
LINE
  5
91
100
AcDbEntity
  8
points_pos
  6
CONTINUOUS
 62
    7
370
    0
100
AcDbLine
 10
230
 20
10
 11
210
 21
10
  0
SOLID
  5
92
100
AcDbEntity
  8
points_pos
  6
CONTINUOUS
 62
    7
370
    0
100
AcDbTrace
 10
240
 20
0
 30
0
 11
234.8446883565463
 21
3.683523121378181
 31
0
 12
236.3164768786218
 22
5.155311643453666
 32
0
 13
236.3164768786218
 23
5.155311643453666
 33
0
  0
ENDBLK
  5
59
330
57
100
AcDbEntity
  8
0
100
AcDbBlockEnd
  0
BLOCK
  5
5B
330
5A
100
AcDbEntity
  8
0
100
AcDbBlockBegin
  2
*D11
 70
    1
 10
0
 20
0
  3
*D11
  1

  0
LINE
  5
93
100
AcDbEntity
  8
points_pos
  6
CONTINUOUS
 62
    7
370
    0
100
AcDbLine
 10
380
 20
-50
 11
370
 21
-60
  0
SOLID
  5
94
100
AcDbEntity
  8
points_pos
  6
CONTINUOUS
 62
    7
370
    0
100
AcDbTrace
 10
380
 20
-50
 30
0
 11
376.3164768786218
 21
-55.15531164345366
 31
0
 12
374.8446883565463
 22
-53.68352312137818
 32
0
 13
374.8446883565463
 23
-53.68352312137818
 33
0
  0
LINE
  5
95
100
AcDbEntity
  8
points_pos
  6
CONTINUOUS
 62
    7
370
    0
100
AcDbLine
 10
370
 20
-60
 11
350
 21
-60
  0
ENDBLK
  5
5C
330
5A
100
AcDbEntity
  8
0
100
AcDbBlockEnd
  0
BLOCK
  5
5E
330
5D
100
AcDbEntity
  8
0
100
AcDbBlockBegin
  2
*D10
 70
    1
 10
0
 20
0
  3
*D10
  1

  0
LINE
  5
96
100
AcDbEntity
  8
points_pos
  6
CONTINUOUS
 62
    7
370
    0
100
AcDbLine
 10
300
 20
-50
 11
290
 21
-60
  0
SOLID
  5
97
100
AcDbEntity
  8
points_pos
  6
CONTINUOUS
 62
    7
370
    0
100
AcDbTrace
 10
300
 20
-50
 30
0
 11
296.3164768786218
 21
-55.15531164345366
 31
0
 12
294.8446883565463
 22
-53.68352312137818
 32
0
 13
294.8446883565463
 23
-53.68352312137818
 33
0
  0
LINE
  5
98
100
AcDbEntity
  8
points_pos
  6
CONTINUOUS
 62
    7
370
    0
100
AcDbLine
 10
290
 20
-60
 11
280
 21
-60
  0
ENDBLK
  5
5F
330
5D
100
AcDbEntity
  8
0
100
AcDbBlockEnd
  0
BLOCK
  5
61
330
60
100
AcDbEntity
  8
0
100
AcDbBlockBegin
  2
*D8
 70
    1
 10
0
 20
0
  3
*D8
  1

  0
LINE
  5
99
100
AcDbEntity
  8
points_pos
  6
CONTINUOUS
 62
    7
370
    0
100
AcDbLine
 10
240
 20
-50
 11
230
 21
-60
  0
SOLID
  5
9A
100
AcDbEntity
  8
points_pos
  6
CONTINUOUS
 62
    7
370
    0
100
AcDbTrace
 10
240
 20
-50
 30
0
 11
236.3164768786218
 21
-55.15531164345366
 31
0
 12
234.8446883565463
 22
-53.68352312137818
 32
0
 13
234.8446883565463
 23
-53.68352312137818
 33
0
  0
LINE
  5
9B
100
AcDbEntity
  8
points_pos
  6
CONTINUOUS
 62
    7
370
    0
100
AcDbLine
 10
230
 20
-60
 11
220
 21
-60
  0
ENDBLK
  5
62
330
60
100
AcDbEntity
  8
0
100
AcDbBlockEnd
  0
BLOCK
  5
64
330
63
100
AcDbEntity
  8
0
100
AcDbBlockBegin
  2
*D13
 70
    1
 10
0
 20
0
  3
*D13
  1

  0
LINE
  5
9C
100
AcDbEntity
  8
points_pos
  6
CONTINUOUS
 62
    7
370
    0
100
AcDbLine
 10
300
 20
0
 11
290
 21
10
  0
SOLID
  5
9D
100
AcDbEntity
  8
points_pos
  6
CONTINUOUS
 62
    7
370
    0
100
AcDbTrace
 10
300
 20
0
 30
0
 11
294.8446883565463
 21
3.683523121378181
 31
0
 12
296.3164768786218
 22
5.155311643453666
 32
0
 13
296.3164768786218
 23
5.155311643453666
 33
0
  0
LINE
  5
9E
100
AcDbEntity
  8
points_pos
  6
CONTINUOUS
 62
    7
370
    0
100
AcDbLine
 10
290
 20
10
 11
270
 21
10
  0
ENDBLK
  5
65
330
63
100
AcDbEntity
  8
0
100
AcDbBlockEnd
  0
BLOCK
  5
67
330
66
100
AcDbEntity
  8
0
100
AcDbBlockBegin
  2
*D18
 70
    1
 10
0
 20
0
  3
*D18
  1

  0
LINE
  5
9F
100
AcDbEntity
  8
points_pos
  6
CONTINUOUS
 62
    7
370
    0
100
AcDbLine
 10
199.239
 20
17.4311
 11
190
 21
10
  0
SOLID
  5
A0
100
AcDbEntity
  8
points_pos
  6
CONTINUOUS
 62
    7
370
    0
100
AcDbTrace
 10
199.239
 20
17.4311
 30
0
 11
195.0211071932043
 21
12.70299668077803
 31
0
 12
193.716585886183
 22
14.32489281399791
 32
0
 13
193.716585886183
 23
14.32489281399791
 33
0
  0
LINE
  5
A1
100
AcDbEntity
  8
points_pos
  6
CONTINUOUS
 62
    7
370
    0
100
AcDbLine
 10
190
 20
10
 11
180
 21
10
  0
ENDBLK
  5
68
330
66
100
AcDbEntity
  8
0
100
AcDbBlockEnd
  0
BLOCK
  5
6A
330
69
100
AcDbEntity
  8
0
100
AcDbBlockBegin
  2
*D1
 70
    1
 10
0
 20
0
  3
*D1
  1

  0
LINE
  5
A2
100
AcDbEntity
  8
dim
  6
ByBlock
 62
    0
370
   -2
100
AcDbLine
 10
180
 20
17.4311
 11
180
 21
-17.43114854953166
  0
MTEXT
  5
A3
100
AcDbEntity
  8
dim
  6
CONTINUOUS
 62
    0
370
   -2
100
AcDbMText
 10
175.3125
 20
-2.427476583242489e-05
 30
0
 40
6.25
 41
11.63194444444444
 71
    5
 72
    1
  1
W0
  7
standard
210
0
220
0
230
1
 50
90
 73
    2
 44
1
  0
SOLID
  5
A4
100
AcDbEntity
  8
dim
  6
ByBlock
 62
    0
370
   -2
100
AcDbTrace
 10
180
 20
17.4311
 30
0
 11
181.0407116444321
 21
11.1811
 31
0
 12
178.9592883555679
 22
11.1811
 32
0
 13
178.9592883555679
 23
11.1811
 33
0
  0
SOLID
  5
A5
100
AcDbEntity
  8
dim
  6
ByBlock
 62
    0
370
   -2
100
AcDbTrace
 10
180
 20
-17.43114854953166
 30
0
 11
178.9592883555679
 21
-11.18114854953166
 31
0
 12
181.0407116444321
 22
-11.18114854953166
 32
0
 13
181.0407116444321
 23
-11.18114854953166
 33
0
  0
LINE
  5
A6
100
AcDbEntity
  8
dim
  6
ByBlock
 62
    0
370
   -2
100
AcDbLine
 10
197.6765
 20
17.4311
 11
176.875
 21
17.4311
  0
LINE
  5
A7
100
AcDbEntity
  8
dim
  6
ByBlock
 62
    0
370
   -2
100
AcDbLine
 10
197.6764396183491
 20
-17.43114854953166
 11
176.875
 21
-17.43114854953166
  0
ENDBLK
  5
6B
330
69
100
AcDbEntity
  8
0
100
AcDbBlockEnd
  0
BLOCK
  5
6D
330
6C
100
AcDbEntity
  8
0
100
AcDbBlockBegin
  2
*D2
 70
    1
 10
0
 20
0
  3
*D2
  1

  0
LINE
  5
A8
100
AcDbEntity
  8
dim
  6
ByBlock
 62
    0
370
   -2
100
AcDbLine
 10
250
 20
50
 11
250
 21
-50
  0
MTEXT
  5
A9
100
AcDbEntity
  8
dim
  6
CONTINUOUS
 62
    0
370
   -2
100
AcDbMText
 10
245.3125
 20
5.740342283542393e-16
 30
0
 40
6.25
 41
10.24305555555555
 71
    5
 72
    1
  1
W1
  7
standard
210
0
220
0
230
1
 50
90
 73
    2
 44
1
  0
SOLID
  5
AA
100
AcDbEntity
  8
dim
  6
ByBlock
 62
    0
370
   -2
100
AcDbTrace
 10
250
 20
50
 30
0
 11
251.0407116444321
 21
43.75
 31
0
 12
248.9592883555679
 22
43.75
 32
0
 13
248.9592883555679
 23
43.75
 33
0
  0
SOLID
  5
AB
100
AcDbEntity
  8
dim
  6
ByBlock
 62
    0
370
   -2
100
AcDbTrace
 10
250
 20
-50
 30
0
 11
248.9592883555679
 21
-43.75
 31
0
 12
251.0407116444321
 22
-43.75
 32
0
 13
251.0407116444321
 23
-43.75
 33
0
  0
LINE
  5
AC
100
AcDbEntity
  8
dim
  6
ByBlock
 62
    0
370
   -2
100
AcDbLine
 10
248.4375
 20
50
 11
246.875
 21
50
  0
LINE
  5
AD
100
AcDbEntity
  8
dim
  6
ByBlock
 62
    0
370
   -2
100
AcDbLine
 10
248.4375
 20
-50
 11
246.875
 21
-50
  0
ENDBLK
  5
6E
330
6C
100
AcDbEntity
  8
0
100
AcDbBlockEnd
  0
BLOCK
  5
70
330
6F
100
AcDbEntity
  8
0
100
AcDbBlockBegin
  2
*D7
 70
    1
 10
0
 20
0
  3
*D7
  1

  0
LINE
  5
AE
100
AcDbEntity
  8
points_pos
  6
CONTINUOUS
 62
    7
370
    0
100
AcDbLine
 10
199.2389396183491
 20
-17.43114854953166
 11
190
 21
-30
  0
SOLID
  5
AF
100
AcDbEntity
  8
points_pos
  6
CONTINUOUS
 62
    7
370
    0
100
AcDbTrace
 10
199.2389396183491
 20
-17.43114854953166
 30
0
 11
196.375785410862
 21
-23.08339842997795
 31
0
 12
194.6987023335105
 22
-21.85063111248147
 32
0
 13
194.6987023335105
 23
-21.85063111248147
 33
0
  0
LINE
  5
B0
100
AcDbEntity
  8
points_pos
  6
CONTINUOUS
 62
    7
370
    0
100
AcDbLine
 10
190
 20
-30
 11
180
 21
-30
  0
ENDBLK
  5
71
330
6F
100
AcDbEntity
  8
0
100
AcDbBlockEnd
  0
BLOCK
  5
73
330
72
100
AcDbEntity
  8
0
100
AcDbBlockBegin
  2
*D6
 70
    1
 10
0
 20
0
  3
*D6
  1

  0
SOLID
  5
B1
100
AcDbEntity
  8
dim
  6
ByBlock
 62
    0
370
   -2
100
AcDbTrace
 10
374.142135623731
 20
-44.14213562373095
 30
0
 11
379.2974472671846
 21
-47.82565874510914
 31
0
 12
377.8256587451091
 22
-49.29744726718462
 32
0
 13
377.8256587451091
 23
-49.29744726718462
 33
0
  0
LINE
  5
B2
100
AcDbEntity
  8
dim
  6
ByBlock
 62
    0
370
   -2
100
AcDbLine
 10
360
 20
-30
 11
388.8735268984507
 21
-58.87352689845069
  0
MTEXT
  5
B3
100
AcDbEntity
  8
dim
  6
CONTINUOUS
 62
    0
370
   -2
100
AcDbMText
 10
384.8223942979027
 20
-48.19326822427889
 30
0
 40
6.25
 41
8.333333333333332
 71
    5
 72
    1
  1
R0
  7
standard
210
0
220
0
230
1
 50
315
 73
    2
 44
1
  0
ENDBLK
  5
74
330
72
100
AcDbEntity
  8
0
100
AcDbBlockEnd
  0
BLOCK
  5
76
330
75
100
AcDbEntity
  8
0
100
AcDbBlockBegin
  2
*D15
 70
    1
 10
0
 20
0
  3
*D15
  1

  0
LINE
  5
B4
100
AcDbEntity
  8
points_pos
  6
CONTINUOUS
 62
    7
370
    0
100
AcDbLine
 10
300
 20
50
 11
290
 21
40
  0
SOLID
  5
B5
100
AcDbEntity
  8
points_pos
  6
CONTINUOUS
 62
    7
370
    0
100
AcDbTrace
 10
300
 20
50
 30
0
 11
296.3164768786218
 21
44.84468835654634
 31
0
 12
294.8446883565463
 22
46.31647687862182
 32
0
 13
294.8446883565463
 23
46.31647687862182
 33
0
  0
LINE
  5
B6
100
AcDbEntity
  8
points_pos
  6
CONTINUOUS
 62
    7
370
    0
100
AcDbLine
 10
290
 20
40
 11
270
 21
40
  0
ENDBLK
  5
77
330
75
100
AcDbEntity
  8
0
100
AcDbBlockEnd
  0
BLOCK
  5
79
330
78
100
AcDbEntity
  8
0
100
AcDbBlockBegin
  2
*D12
 70
    1
 10
0
 20
0
  3
*D12
  1

  0
LINE
  5
B7
100
AcDbEntity
  8
points_pos
  6
CONTINUOUS
 62
    7
370
    0
100
AcDbLine
 10
380
 20
0
 11
370
 21
10
  0
SOLID
  5
B8
100
AcDbEntity
  8
points_pos
  6
CONTINUOUS
 62
    7
370
    0
100
AcDbTrace
 10
380
 20
0
 30
0
 11
374.8446883565463
 21
3.683523121378181
 31
0
 12
376.3164768786218
 22
5.155311643453666
 32
0
 13
376.3164768786218
 23
5.155311643453666
 33
0
  0
LINE
  5
B9
100
AcDbEntity
  8
points_pos
  6
CONTINUOUS
 62
    7
370
    0
100
AcDbLine
 10
370
 20
10
 11
350
 21
10
  0
ENDBLK
  5
7A
330
78
100
AcDbEntity
  8
0
100
AcDbBlockEnd
  0
BLOCK
  5
7C
330
7B
100
AcDbEntity
  8
0
100
AcDbBlockBegin
  2
*D9
 70
    1
 10
0
 20
0
  3
*D9
  1

  0
LINE
  5
BA
100
AcDbEntity
  8
points_pos
  6
CONTINUOUS
 62
    7
370
    0
100
AcDbLine
 10
220
 20
-17.4311
 11
210
 21
-10
  0
SOLID
  5
BB
100
AcDbEntity
  8
points_pos
  6
CONTINUOUS
 62
    7
370
    0
100
AcDbTrace
 10
220
 20
-17.4311
 30
0
 11
214.36272079497
 21
-14.53858139307752
 31
0
 12
215.6041956588252
 22
-12.86793389290225
 32
0
 13
215.6041956588252
 23
-12.86793389290225
 33
0
  0
LINE
  5
BC
100
AcDbEntity
  8
points_pos
  6
CONTINUOUS
 62
    7
370
    0
100
AcDbLine
 10
210
 20
-10
 11
190
 21
-10
  0
ENDBLK
  5
7D
330
7B
100
AcDbEntity
  8
0
100
AcDbBlockEnd
  0
BLOCK
  5
7F
330
7E
100
AcDbEntity
  8
0
100
AcDbBlockBegin
  2
*D5
 70
    1
 10
0
 20
0
  3
*D5
  1

  0
LINE
  5
BD
100
AcDbEntity
  8
dim
  6
ByBlock
 62
    0
370
   -2
100
AcDbLine
 10
240
 20
70
 11
380
 21
70
  0
MTEXT
  5
BE
100
AcDbEntity
  8
dim
  6
CONTINUOUS
 62
    0
370
   -2
100
AcDbMText
 10
310
 20
74.6875
 30
0
 40
6.25
 41
8.333333333333332
 71
    5
 72
    1
  1
H2
  7
standard
210
0
220
0
230
1
 50
0
 73
    2
 44
1
  0
SOLID
  5
BF
100
AcDbEntity
  8
dim
  6
ByBlock
 62
    0
370
   -2
100
AcDbTrace
 10
240
 20
70
 30
0
 11
246.25
 21
71.04071164443209
 31
0
 12
246.25
 22
68.95928835556789
 32
0
 13
246.25
 23
68.95928835556789
 33
0
  0
SOLID
  5
C0
100
AcDbEntity
  8
dim
  6
ByBlock
 62
    0
370
   -2
100
AcDbTrace
 10
380
 20
70
 30
0
 11
373.75
 21
68.95928835556789
 31
0
 12
373.75
 22
71.04071164443211
 32
0
 13
373.75
 23
71.04071164443211
 33
0
  0
LINE
  5
C1
100
AcDbEntity
  8
dim
  6
ByBlock
 62
    0
370
   -2
100
AcDbLine
 10
240
 20
51.5625
 11
240
 21
73.125
  0
LINE
  5
C2
100
AcDbEntity
  8
dim
  6
ByBlock
 62
    0
370
   -2
100
AcDbLine
 10
380
 20
51.5625
 11
380
 21
73.125
  0
ENDBLK
  5
80
330
7E
100
AcDbEntity
  8
0
100
AcDbBlockEnd
  0
BLOCK
  5
82
330
81
100
AcDbEntity
  8
0
100
AcDbBlockBegin
  2
*D17
 70
    1
 10
0
 20
0
  3
*D17
  1

  0
LINE
  5
C3
100
AcDbEntity
  8
points_pos
  6
CONTINUOUS
 62
    7
370
    0
100
AcDbLine
 10
220
 20
17.4311
 11
230
 21
30
  0
SOLID
  5
C4
100
AcDbEntity
  8
points_pos
  6
CONTINUOUS
 62
    7
370
    0
100
AcDbTrace
 10
220
 20
17.4311
 30
0
 11
223.0768530935542
 21
22.9699225975872
 31
0
 12
224.7056501595827
 22
21.67402791624797
 32
0
 13
224.7056501595827
 23
21.67402791624797
 33
0
  0
LINE
  5
C5
100
AcDbEntity
  8
points_pos
  6
CONTINUOUS
 62
    7
370
    0
100
AcDbLine
 10
230
 20
30
 11
240
 21
30
  0
ENDBLK
  5
83
330
81
100
AcDbEntity
  8
0
100
AcDbBlockEnd
  0
BLOCK
  5
85
330
84
100
AcDbEntity
  8
0
100
AcDbBlockBegin
  2
*D4
 70
    1
 10
0
 20
0
  3
*D4
  1

  0
LINE
  5
C6
100
AcDbEntity
  8
dim
  6
ByBlock
 62
    0
370
   -2
100
AcDbLine
 10
220
 20
70
 11
240
 21
70
  0
MTEXT
  5
C7
100
AcDbEntity
  8
dim
  6
CONTINUOUS
 62
    0
370
   -2
100
AcDbMText
 10
230
 20
74.6875
 30
0
 40
6.25
 41
6.944444444444445
 71
    5
 72
    1
  1
H1
  7
standard
210
0
220
0
230
1
 50
0
 73
    2
 44
1
  0
SOLID
  5
C8
100
AcDbEntity
  8
dim
  6
ByBlock
 62
    0
370
   -2
100
AcDbTrace
 10
220
 20
70
 30
0
 11
226.25
 21
71.04071164443209
 31
0
 12
226.25
 22
68.95928835556789
 32
0
 13
226.25
 23
68.95928835556789
 33
0
  0
SOLID
  5
C9
100
AcDbEntity
  8
dim
  6
ByBlock
 62
    0
370
   -2
100
AcDbTrace
 10
240
 20
70
 30
0
 11
233.75
 21
68.95928835556789
 31
0
 12
233.75
 22
71.04071164443211
 32
0
 13
233.75
 23
71.04071164443211
 33
0
  0
LINE
  5
CA
100
AcDbEntity
  8
dim
  6
ByBlock
 62
    0
370
   -2
100
AcDbLine
 10
220
 20
18.9936
 11
220
 21
73.125
  0
LINE
  5
CB
100
AcDbEntity
  8
dim
  6
ByBlock
 62
    0
370
   -2
100
AcDbLine
 10
240
 20
51.5625
 11
240
 21
73.125
  0
ENDBLK
  5
86
330
84
100
AcDbEntity
  8
0
100
AcDbBlockEnd
  0
BLOCK
  5
88
330
87
100
AcDbEntity
  8
0
100
AcDbBlockBegin
  2
*D3
 70
    1
 10
0
 20
0
  3
*D3
  1

  0
LINE
  5
CC
100
AcDbEntity
  8
dim
  6
ByBlock
 62
    0
370
   -2
100
AcDbLine
 10
199.2389396183491
 20
70
 11
220
 21
70
  0
MTEXT
  5
CD
100
AcDbEntity
  8
dim
  6
CONTINUOUS
 62
    0
370
   -2
100
AcDbMText
 10
209.6194698091746
 20
74.6875
 30
0
 40
6.25
 41
8.333333333333332
 71
    5
 72
    1
  1
H0
  7
standard
210
0
220
0
230
1
 50
0
 73
    2
 44
1
  0
SOLID
  5
CE
100
AcDbEntity
  8
dim
  6
ByBlock
 62
    0
370
   -2
100
AcDbTrace
 10
199.2389396183491
 20
70
 30
0
 11
205.4889396183491
 21
71.04071164443209
 31
0
 12
205.4889396183491
 22
68.95928835556789
 32
0
 13
205.4889396183491
 23
68.95928835556789
 33
0
  0
SOLID
  5
CF
100
AcDbEntity
  8
dim
  6
ByBlock
 62
    0
370
   -2
100
AcDbTrace
 10
220
 20
70
 30
0
 11
213.75
 21
68.95928835556789
 31
0
 12
213.75
 22
71.04071164443211
 32
0
 13
213.75
 23
71.04071164443211
 33
0
  0
LINE
  5
D0
100
AcDbEntity
  8
dim
  6
ByBlock
 62
    0
370
   -2
100
AcDbLine
 10
199.2389396183491
 20
18.99364854953161
 11
199.2389396183491
 21
73.125
  0
LINE
  5
D1
100
AcDbEntity
  8
dim
  6
ByBlock
 62
    0
370
   -2
100
AcDbLine
 10
220
 20
18.9936
 11
220
 21
73.125
  0
ENDBLK
  5
89
330
87
100
AcDbEntity
  8
0
100
AcDbBlockEnd
  0
ENDSEC
  0
SECTION
  2
ENTITIES
  0
LINE
  5
D2
100
AcDbEntity
  8
coordinates
  6
ByLayer
 62
  256
370
   -1
100
AcDbLine
 10
390
 20
-3
 11
400
 21
0
  0
LINE
  5
D3
100
AcDbEntity
  8
coordinates
  6
ByLayer
 62
  256
370
   -1
100
AcDbLine
 10
400
 20
0
 11
390
 21
3
  0
LINE
  5
D4
100
AcDbEntity
  8
coordinates
  6
ByLayer
 62
  256
370
   -1
100
AcDbLine
 10
390
 20
3
 11
390
 21
-3
  0
ARC
  5
D5
100
AcDbEntity
  8
0
  6
ByLayer
 62
  256
370
   -1
100
AcDbCircle
 10
0
 20
0
 40
200
100
AcDbArc
 50
345
 51
355
  0
LINE
  5
D6
100
AcDbEntity
  8
0
  6
CONTINUOUS
 62
  256
370
   40
100
AcDbLine
 10
199.239
 20
-17.4311
 11
220
 21
-17.4311
  0
LINE
  5
D7
100
AcDbEntity
  8
0
  6
ByLayer
 62
  256
370
   -1
100
AcDbLine
 10
220
 20
-17.4311
 11
240
 21
-50
  0
LINE
  5
D8
100
AcDbEntity
  8
0
  6
ByLayer
 62
  256
370
   -1
100
AcDbLine
 10
240
 20
-50
 11
360
 21
-50
  0
ARC
  5
D9
100
AcDbEntity
  8
0
  6
ByLayer
 62
  256
370
   -1
100
AcDbCircle
 10
360
 20
-30
 40
20
100
AcDbArc
 50
270
 51
0
  0
ARC
  5
DA
100
AcDbEntity
  8
0
  6
ByLayer
 62
  256
370
   -1
100
AcDbCircle
 10
0
 20
0
 40
200
100
AcDbArc
 50
4.999999999999995
 51
14.99999999999998
  0
LINE
  5
DB
100
AcDbEntity
  8
0
  6
CONTINUOUS
 62
  256
370
   40
100
AcDbLine
 10
199.239
 20
17.4311
 11
220
 21
17.4311
  0
LINE
  5
DC
100
AcDbEntity
  8
0
  6
ByLayer
 62
  256
370
   -1
100
AcDbLine
 10
220
 20
17.4311
 11
240
 21
50
  0
LINE
  5
DD
100
AcDbEntity
  8
0
  6
ByLayer
 62
  256
370
   -1
100
AcDbLine
 10
380
 20
-30
 11
380
 21
50
  0
LINE
  5
DE
100
AcDbEntity
  8
0
  6
ByLayer
 62
  256
370
   -1
100
AcDbLine
 10
380
 20
50
 11
240
 21
50
  0
DIMENSION
  5
DF
100
AcDbEntity
  8
dim
  6
ByLayer
 62
  256
370
   -1
100
AcDbDimension
  2
*D1
 10
180
 20
-17.43114854953166
 30
0
 11
175.3125
 21
-2.427476583242489e-05
 31
0
 70
   32
  1
W0
 71
    5
  3
Standard
 53
0
210
0
220
0
230
1
100
AcDbAlignedDimension
 13
199.239
 23
17.4311
 33
0
 14
199.2389396183491
 24
-17.43114854953166
 34
0
 50
90
100
AcDbRotatedDimension
  0
DIMENSION
  5
E0
100
AcDbEntity
  8
dim
  6
ByLayer
 62
  256
370
   -1
100
AcDbDimension
  2
*D2
 10
250
 20
-50
 30
0
 11
245.3125
 21
5.740342283542393e-16
 31
0
 70
   32
  1
W1
 71
    5
  3
Standard
 53
0
210
0
220
0
230
1
100
AcDbAlignedDimension
 13
250
 23
50
 33
0
 14
250
 24
-50
 34
0
 50
90
100
AcDbRotatedDimension
  0
DIMENSION
  5
E1
100
AcDbEntity
  8
dim
  6
ByLayer
 62
  256
370
   -1
100
AcDbDimension
  2
*D3
 10
220
 20
70
 30
0
 11
209.6194698091746
 21
74.6875
 31
0
 70
   32
  1
H0
 71
    5
  3
Standard
 53
0
210
0
220
0
230
1
100
AcDbAlignedDimension
 13
199.2389396183491
 23
17.43114854953161
 33
0
 14
220
 24
17.4311
 34
0
100
AcDbRotatedDimension
  0
DIMENSION
  5
E2
100
AcDbEntity
  8
dim
  6
ByLayer
 62
  256
370
   -1
100
AcDbDimension
  2
*D4
 10
240
 20
70
 30
0
 11
230
 21
74.6875
 31
0
 70
   32
  1
H1
 71
    5
  3
Standard
 53
0
210
0
220
0
230
1
100
AcDbAlignedDimension
 13
220
 23
17.4311
 33
0
 14
240
 24
50
 34
0
100
AcDbRotatedDimension
  0
DIMENSION
  5
E3
100
AcDbEntity
  8
dim
  6
ByLayer
 62
  256
370
   -1
100
AcDbDimension
  2
*D5
 10
380
 20
70
 30
0
 11
310
 21
74.6875
 31
0
 70
   32
  1
H2
 71
    5
  3
Standard
 53
0
210
0
220
0
230
1
100
AcDbAlignedDimension
 13
240
 23
50
 33
0
 14
380
 24
50
 34
0
100
AcDbRotatedDimension
  0
DIMENSION
  5
E4
100
AcDbEntity
  8
dim
  6
ByLayer
 62
  256
370
   -1
100
AcDbDimension
  2
*D6
 10
360
 20
-30
 30
0
 11
384.8223942979027
 21
-48.19326822427889
 31
0
 70
   36
  1
R0
 71
    5
  3
Standard
 53
0
210
0
220
0
230
1
100
AcDbRadialDimension
 15
374.142135623731
 25
-44.14213562373095
 35
0
 40
0
  0
LINE
  5
E5
100
AcDbEntity
  8
coordinates
  6
ByLayer
 62
  256
370
   -1
100
AcDbLine
 10
160
 20
0
 11
400
 21
0
  0
LEADER
  5
E6
100
AcDbEntity
  8
points_pos
  6
ByLayer
 62
  256
370
   -1
100
AcDbLeader
  3
Standard
 71
    1
 72
    0
 73
    3
 74
    0
 75
    0
 40
1
 41
10
 76
3
 76
3
 10
199.2389396183491
 20
-17.43114854953166
 30
0
 10
190
 20
-30
 30
0
 10
180
 20
-30
 30
0
  0
LEADER
  5
E7
100
AcDbEntity
  8
points_pos
  6
ByLayer
 62
  256
370
   -1
100
AcDbLeader
  3
Standard
 71
    1
 72
    0
 73
    3
 74
    0
 75
    0
 40
1
 41
10
 76
3
 76
3
 10
240
 20
-50
 30
0
 10
230
 20
-60
 30
0
 10
220
 20
-60
 30
0
  0
LEADER
  5
E8
100
AcDbEntity
  8
points_pos
  6
ByLayer
 62
  256
370
   -1
100
AcDbLeader
  3
Standard
 71
    1
 72
    0
 73
    3
 74
    0
 75
    0
 40
1
 41
10
 76
3
 76
3
 10
220
 20
-17.4311
 30
0
 10
210
 20
-10
 30
0
 10
190
 20
-10
 30
0
  0
LEADER
  5
E9
100
AcDbEntity
  8
points_pos
  6
ByLayer
 62
  256
370
   -1
100
AcDbLeader
  3
Standard
 71
    1
 72
    0
 73
    3
 74
    0
 75
    0
 40
1
 41
10
 76
3
 76
3
 10
300
 20
-50
 30
0
 10
290
 20
-60
 30
0
 10
280
 20
-60
 30
0
  0
LEADER
  5
EA
100
AcDbEntity
  8
points_pos
  6
ByLayer
 62
  256
370
   -1
100
AcDbLeader
  3
Standard
 71
    1
 72
    0
 73
    3
 74
    0
 75
    0
 40
1
 41
10
 76
3
 76
3
 10
380
 20
-50
 30
0
 10
370
 20
-60
 30
0
 10
350
 20
-60
 30
0
  0
LEADER
  5
EB
100
AcDbEntity
  8
points_pos
  6
ByLayer
 62
  256
370
   -1
100
AcDbLeader
  3
Standard
 71
    1
 72
    0
 73
    3
 74
    0
 75
    0
 40
1
 41
10
 76
3
 76
3
 10
380
 20
0
 30
0
 10
370
 20
10
 30
0
 10
350
 20
10
 30
0
  0
LEADER
  5
EC
100
AcDbEntity
  8
points_pos
  6
ByLayer
 62
  256
370
   -1
100
AcDbLeader
  3
Standard
 71
    1
 72
    0
 73
    3
 74
    0
 75
    0
 40
1
 41
10
 76
3
 76
3
 10
300
 20
0
 30
0
 10
290
 20
10
 30
0
 10
270
 20
10
 30
0
  0
LEADER
  5
ED
100
AcDbEntity
  8
points_pos
  6
ByLayer
 62
  256
370
   -1
100
AcDbLeader
  3
Standard
 71
    1
 72
    0
 73
    3
 74
    0
 75
    0
 40
1
 41
10
 76
3
 76
3
 10
380
 20
50
 30
0
 10
370
 20
40
 30
0
 10
350
 20
40
 30
0
  0
LEADER
  5
EE
100
AcDbEntity
  8
points_pos
  6
ByLayer
 62
  256
370
   -1
100
AcDbLeader
  3
Standard
 71
    1
 72
    0
 73
    3
 74
    0
 75
    0
 40
1
 41
10
 76
3
 76
3
 10
300
 20
50
 30
0
 10
290
 20
40
 30
0
 10
270
 20
40
 30
0
  0
LEADER
  5
EF
100
AcDbEntity
  8
points_pos
  6
ByLayer
 62
  256
370
   -1
100
AcDbLeader
  3
Standard
 71
    1
 72
    0
 73
    3
 74
    0
 75
    0
 40
1
 41
10
 76
3
 76
3
 10
240
 20
50
 30
0
 10
230
 20
40
 30
0
 10
220
 20
40
 30
0
  0
LEADER
  5
F0
100
AcDbEntity
  8
points_pos
  6
ByLayer
 62
  256
370
   -1
100
AcDbLeader
  3
Standard
 71
    1
 72
    0
 73
    3
 74
    0
 75
    0
 40
1
 41
10
 76
3
 76
3
 10
220
 20
17.4311
 30
0
 10
230
 20
30
 30
0
 10
240
 20
30
 30
0
  0
LEADER
  5
F1
100
AcDbEntity
  8
points_pos
  6
ByLayer
 62
  256
370
   -1
100
AcDbLeader
  3
Standard
 71
    1
 72
    0
 73
    3
 74
    0
 75
    0
 40
1
 41
10
 76
3
 76
3
 10
199.239
 20
17.4311
 30
0
 10
190
 20
10
 30
0
 10
180
 20
10
 30
0
  0
POINT
  5
F2
100
AcDbEntity
  8
points_pos
  6
ByLayer
 62
  256
370
   -1
100
AcDbPoint
 10
300
 20
0
  0
POINT
  5
F3
100
AcDbEntity
  8
points_pos
  6
ByLayer
 62
  256
370
   -1
100
AcDbPoint
 10
380
 20
-50
  0
POINT
  5
F4
100
AcDbEntity
  8
points_pos
  6
ByLayer
 62
  256
370
   -1
100
AcDbPoint
 10
240
 20
0
  0
TEXT
  5
F5
100
AcDbEntity
  8
points_pos
  6
ByLayer
 62
  256
370
   -1
100
AcDbText
 10
180
 20
-30
 30
0
 40
7
  1
1
 50
0
 41
1
 51
0
  7
standard
 71
    0
 72
    2
 11
180
 21
-30
 31
0
210
0
220
0
230
1
100
AcDbText
 73
    1
  0
TEXT
  5
F6
100
AcDbEntity
  8
points_pos
  6
ByLayer
 62
  256
370
   -1
100
AcDbText
 10
190
 20
-10
 30
0
 40
7
  1
2
 50
0
 41
1
 51
0
  7
standard
 71
    0
 72
    2
 11
190
 21
-10
 31
0
210
0
220
0
230
1
100
AcDbText
 73
    1
  0
TEXT
  5
F7
100
AcDbEntity
  8
points_pos
  6
ByLayer
 62
  256
370
   -1
100
AcDbText
 10
220
 20
-60
 30
0
 40
7
  1
3
 50
0
 41
1
 51
0
  7
standard
 71
    0
 72
    2
 11
220
 21
-60
 31
0
210
0
220
0
230
1
100
AcDbText
 73
    1
  0
TEXT
  5
F8
100
AcDbEntity
  8
points_pos
  6
ByLayer
 62
  256
370
   -1
100
AcDbText
 10
280
 20
-60
 30
0
 40
7
  1
4
 50
0
 41
1
 51
0
  7
standard
 71
    0
 72
    2
 11
280
 21
-60
 31
0
210
0
220
0
230
1
100
AcDbText
 73
    1
  0
TEXT
  5
F9
100
AcDbEntity
  8
points_pos
  6
ByLayer
 62
  256
370
   -1
100
AcDbText
 10
350
 20
-60
 30
0
 40
7
  1
5
 50
0
 41
1
 51
0
  7
standard
 71
    0
 72
    2
 11
350
 21
-60
 31
0
210
0
220
0
230
1
100
AcDbText
 73
    1
  0
TEXT
  5
FA
100
AcDbEntity
  8
points_pos
  6
ByLayer
 62
  256
370
   -1
100
AcDbText
 10
350
 20
10
 30
0
 40
7
  1
6
 50
0
 41
1
 51
0
  7
standard
 71
    0
 72
    2
 11
350
 21
10
 31
0
210
0
220
0
230
1
100
AcDbText
 73
    1
  0
TEXT
  5
FB
100
AcDbEntity
  8
points_pos
  6
ByLayer
 62
  256
370
   -1
100
AcDbText
 10
350
 20
40
 30
0
 40
7
  1
7
 50
0
 41
1
 51
0
  7
standard
 71
    0
 72
    2
 11
350
 21
40
 31
0
210
0
220
0
230
1
100
AcDbText
 73
    1
  0
TEXT
  5
FC
100
AcDbEntity
  8
points_pos
  6
ByLayer
 62
  256
370
   -1
100
AcDbText
 10
270
 20
40
 30
0
 40
7
  1
8
 50
0
 41
1
 51
0
  7
standard
 71
    0
 72
    2
 11
270
 21
40
 31
0
210
0
220
0
230
1
100
AcDbText
 73
    1
  0
TEXT
  5
FD
100
AcDbEntity
  8
points_pos
  6
ByLayer
 62
  256
370
   -1
100
AcDbText
 10
220
 20
40
 30
0
 40
7
  1
9
 50
0
 41
1
 51
0
  7
standard
 71
    0
 72
    2
 11
220
 21
40
 31
0
210
0
220
0
230
1
100
AcDbText
 73
    1
  0
TEXT
  5
FE
100
AcDbEntity
  8
points_pos
  6
ByLayer
 62
  256
370
   -1
100
AcDbText
 10
240
 20
30
 30
0
 40
7
  1
10
 50
0
 41
1
 51
0
  7
standard
 71
    0
 72
    2
 11
240
 21
30
 31
0
210
0
220
0
230
1
100
AcDbText
 73
    1
  0
TEXT
  5
FF
100
AcDbEntity
  8
points_pos
  6
ByLayer
 62
  256
370
   -1
100
AcDbText
 10
180
 20
10
 30
0
 40
7
  1
11
 50
0
 41
1
 51
0
  7
standard
 71
    0
 72
    2
 11
180
 21
10
 31
0
210
0
220
0
230
1
100
AcDbText
 73
    1
  0
TEXT
  5
100
100
AcDbEntity
  8
points_pos
  6
ByLayer
 62
  256
370
   -1
100
AcDbText
 10
270
 20
10
 30
0
 40
7
  1
13
 50
0
 41
1
 51
0
  7
standard
 71
    0
 72
    2
 11
270
 21
10
 31
0
210
0
220
0
230
1
100
AcDbText
 73
    1
  0
LEADER
  5
101
100
AcDbEntity
  8
points_pos
  6
ByLayer
 62
  256
370
   -1
100
AcDbLeader
  3
Standard
 71
    1
 72
    0
 73
    3
 74
    0
 75
    0
 40
1
 41
10
 76
3
 76
3
 10
240
 20
0
 30
0
 10
230
 20
10
 30
0
 10
210
 20
10
 30
0
  0
TEXT
  5
102
100
AcDbEntity
  8
points_pos
  6
ByLayer
 62
  256
370
   -1
100
AcDbText
 10
210
 20
10
 30
0
 40
7
  1
12
 50
0
 41
1
 51
0
  7
standard
 71
    0
 72
    2
 11
210
 21
10
 31
0
210
0
220
0
230
1
100
AcDbText
 73
    1
  0
ENDSEC
  0
SECTION
  2
OBJECTS
  0
DICTIONARY
  5
C
330
0
100
AcDbDictionary
281
    1
  3
ACAD_GROUP
350
D
  0
DICTIONARY
  5
D
330
C
100
AcDbDictionary
281
    1
  0
PLOTSETTINGS
  5
103
100
AcDbPlotSettings
  6
1x1
 40
0
 41
0
 42
0
 43
0
  0
ENDSEC
  0
EOF
