999
dxfrw 0.6.3
  0
SECTION
  2
HEADER
  9
$ACADVER
  1
AC1021
  9
$DWGCODEPAGE
  3
ANSI_1252
  9
$INSBASE
 10
0
 20
0
 30
0
  9
$EXTMIN
 10
-4
 20
-128.5575219373079
 30
0
  9
$EXTMAX
 10
230
 20
128.5575219373079
 30
0
  9
$LIMMIN
 10
0
 20
0
  9
$LIMMAX
 10
420
 20
297
  9
$ORTHOMODE
 70
    0
  9
$REGENMODE
 70
    1
  9
$FILLMODE
 70
    1
  9
$QTEXTMODE
 70
    0
  9
$MIRRTEXT
 70
    0
  9
$LTSCALE
 40
1
  9
$ATTMODE
 70
    0
  9
$TEXTSIZE
 40
2.5
  9
$TRACEWID
 40
15.68
  9
$TEXTSTYLE
  7
STANDARD
  9
$CLAYER
  8
0
  9
$CELTYPE
  6
BYLAYER
  9
$CECOLOR
 62
  256
  9
$CELTSCALE
 40
1
  9
$DISPSILH
 70
    0
  9
$DIMSCALE
 40
2.5
  9
$DIMASZ
 40
2.5
  9
$DIMEXO
 40
0.625
  9
$DIMDLI
 40
3.75
  9
$DIMRND
 40
0
  9
$DIMDLE
 40
0
  9
$DIMEXE
 40
1.25
  9
$DIMTP
 40
0
  9
$DIMTM
 40
0
  9
$DIMTXT
 40
2.5
  9
$DIMCEN
 40
2.5
  9
$DIMTSZ
 40
0
  9
$DIMTOL
 70
    0
  9
$DIMLIM
 70
    0
  9
$DIMTIH
 70
    0
  9
$DIMTOH
 70
    0
  9
$DIMSE1
 70
    0
  9
$DIMSE2
 70
    0
  9
$DIMTAD
 70
    1
  9
$DIMZIN
 70
    8
  9
$DIMBLK
  1

  9
$DIMASO
 70
    1
  9
$DIMSHO
 70
    1
  9
$DIMPOST
  1

  9
$DIMAPOST
  1

  9
$DIMALT
 70
    0
  9
$DIMALTD
 70
    3
  9
$DIMALTF
 40
0.03937
  9
$DIMLFAC
 40
1
  9
$DIMTOFL
 70
    1
  9
$DIMTVP
 40
0
  9
$DIMTIX
 70
    0
  9
$DIMSOXD
 70
    0
  9
$DIMSAH
 70
    0
  9
$DIMBLK1
  1

  9
$DIMBLK2
  1

  9
$DIMSTYLE
  2
STANDARD
  9
$DIMCLRD
 70
    0
  9
$DIMCLRE
 70
    0
  9
$DIMCLRT
 70
    0
  9
$DIMTFAC
 40
1
  9
$DIMGAP
 40
0.625
  9
$DIMJUST
 70
    0
  9
$DIMSD1
 70
    0
  9
$DIMSD2
 70
    0
  9
$DIMTOLJ
 70
    0
  9
$DIMTZIN
 70
    8
  9
$DIMALTZ
 70
    0
  9
$DIMALTTZ
 70
    0
  9
$DIMUPT
 70
    0
  9
$DIMDEC
 70
    2
  9
$DIMTDEC
 70
    2
  9
$DIMALTU
 70
    2
  9
$DIMALTTD
 70
    3
  9
$DIMTXSTY
  7
standard
  9
$DIMAUNIT
 70
    0
  9
$DIMADEC
 70
    0
  9
$DIMALTRND
 40
0
  9
$DIMAZIN
 70
    0
  9
$DIMDSEP
 70
   44
  9
$DIMATFIT
 70
    3
  9
$DIMFRAC
 70
    0
  9
$DIMLDRBLK
  1
STANDARD
  9
$DIMLUNIT
 70
    2
  9
$DIMLWD
 70
   -2
  9
$DIMLWE
 70
   -2
  9
$DIMTMOVE
 70
    0
  9
$DIMFXL
 40
1
  9
$DIMFXLON
 70
    0
  9
$DIMJOGANG
 40
0.7854
  9
$DIMTFILL
 70
    0
  9
$DIMTFILLCLR
 70
    0
  9
$DIMARCSYM
 70
    0
  9
$DIMLTYPE
  6

  9
$DIMLTEX1
  6

  9
$DIMLTEX2
  6

  9
$LUNITS
 70
    2
  9
$LUPREC
 70
    4
  9
$SKETCHINC
 40
1
  9
$FILLETRAD
 40
0
  9
$AUNITS
 70
    0
  9
$AUPREC
 70
    2
  9
$MENU
  1
.
  9
$ELEVATION
 40
0
  9
$PELEVATION
 40
0
  9
$THICKNESS
 40
0
  9
$LIMCHECK
 70
    0
  9
$CHAMFERA
 40
0
  9
$CHAMFERB
 40
0
  9
$CHAMFERC
 40
0
  9
$CHAMFERD
 40
0
  9
$SKPOLY
 70
    0
  9
$USRTIMER
 70
    1
  9
$ANGBASE
 50
0
  9
$ANGDIR
 70
    0
  9
$PDMODE
 70
    2
  9
$PDSIZE
 40
0
  9
$PLINEWID
 40
0
  9
$SPLFRAME
 70
    0
  9
$SPLINETYPE
 70
    2
  9
$SPLINESEGS
 70
    8
  9
$HANDSEED
  5
20000
  9
$SURFTAB1
 70
    6
  9
$SURFTAB2
 70
    6
  9
$SURFTYPE
 70
    6
  9
$SURFU
 70
    6
  9
$SURFV
 70
    6
  9
$UCSBASE
  2

  9
$UCSNAME
  2

  9
$UCSORG
 10
0
 20
0
 30
0
  9
$UCSXDIR
 10
1
 20
0
 30
0
  9
$UCSYDIR
 10
0
 20
1
 30
0
  9
$UCSORTHOREF
  2

  9
$UCSORTHOVIEW
 70
    0
  9
$UCSORGTOP
 10
0
 20
0
 30
0
  9
$UCSORGBOTTOM
 10
0
 20
0
 30
0
  9
$UCSORGLEFT
 10
0
 20
0
 30
0
  9
$UCSORGRIGHT
 10
0
 20
0
 30
0
  9
$UCSORGFRONT
 10
0
 20
0
 30
0
  9
$UCSORGBACK
 10
0
 20
0
 30
0
  9
$PUCSBASE
  2

  9
$PUCSNAME
  2

  9
$PUCSORG
 10
0
 20
0
 30
0
  9
$PUCSXDIR
 10
1
 20
0
 30
0
  9
$PUCSYDIR
 10
0
 20
1
 30
0
  9
$PUCSORTHOREF
  2

  9
$PUCSORTHOVIEW
 70
    0
  9
$PUCSORGTOP
 10
0
 20
0
 30
0
  9
$PUCSORGBOTTOM
 10
0
 20
0
 30
0
  9
$PUCSORGLEFT
 10
0
 20
0
 30
0
  9
$PUCSORGRIGHT
 10
0
 20
0
 30
0
  9
$PUCSORGFRONT
 10
0
 20
0
 30
0
  9
$PUCSORGBACK
 10
0
 20
0
 30
0
  9
$USERI1
 70
    0
  9
$USERI2
 70
    0
  9
$USERI3
 70
    0
  9
$USERI4
 70
    0
  9
$USERI5
 70
    0
  9
$USERR1
 40
0
  9
$USERR2
 40
0
  9
$USERR3
 40
0
  9
$USERR4
 40
0
  9
$USERR5
 40
0
  9
$WORLDVIEW
 70
    1
  9
$SHADEDGE
 70
    3
  9
$SHADEDIF
 70
   70
  9
$TILEMODE
 70
    1
  9
$MAXACTVP
 70
   64
  9
$PINSBASE
 10
58.83363883010892
 20
102.0113733905916
 30
0
  9
$PLIMCHECK
 70
    0
  9
$PEXTMIN
 10
0
 20
0
 30
0
  9
$PEXTMAX
 10
0
 20
0
 30
0
  9
$GRIDMODE
 70
    1
  9
$SNAPSTYLE
 70
    0
  9
$GRIDUNIT
 10
0
 20
0
  9
$PLIMMIN
 10
0
 20
0
  9
$PLIMMAX
 10
297
 20
210
  9
$UNITMODE
 70
    0
  9
$VISRETAIN
 70
    1
  9
$PLINEGEN
 70
    0
  9
$PSLTSCALE
 70
    1
  9
$TREEDEPTH
 70
 3020
  9
$CMLSTYLE
  2
Standard
  9
$CMLJUST
 70
    0
  9
$CMLSCALE
 40
20
  9
$PROXYGRAPHICS
 70
    1
  9
$MEASUREMENT
 70
    1
  9
$CELWEIGHT
370
   -1
  9
$ENDCAPS
280
    0
  9
$JOINSTYLE
280
    0
  9
$LWDISPLAY
290
    0
  9
$INSUNITS
 70
    0
  9
$HYPERLINKBASE
  1

  9
$STYLESHEET
  1

  9
$XEDIT
290
    1
  9
$CEPSNTYPE
380
    0
  9
$PSTYLEMODE
290
    1
  9
$EXTNAMES
290
    1
  9
$PSVPSCALE
 40
0.7935076209724874
  9
$OLESTARTUP
290
    0
  9
$SORTENTS
280
  127
  9
$INDEXCTL
280
    0
  9
$HIDETEXT
280
    1
  9
$XCLIPFRAME
290
    0
  9
$HALOGAP
280
    0
  9
$OBSCOLOR
 70
  257
  9
$OBSLTYPE
280
    0
  9
$INTERSECTIONDISPLAY
280
    0
  9
$INTERSECTIONCOLOR
 70
  257
  9
$DIMASSOC
280
    1
  9
$PROJECTNAME
  1

  9
$CAMERADISPLAY
290
    0
  9
$LENSLENGTH
 40
50
  9
$CAMERAHEIGHT
 40
0
  9
$STEPSPERSEC
 40
2
  9
$STEPSIZE
 40
50
  9
$3DDWFPREC
 40
2
  9
$PSOLWIDTH
 40
5
  9
$PSOLHEIGHT
 40
80
  9
$LOFTANG1
 40
1.570796326794897
  9
$LOFTANG2
 40
1.570796326794897
  9
$LOFTMAG1
 40
0
  9
$LOFTMAG2
 40
0
  9
$LOFTPARAM
 70
    7
  9
$LOFTNORMALS
280
    1
  9
$LATITUDE
 40
1
  9
$LONGITUDE
 40
1
  9
$NORTHDIRECTION
 40
0
  9
$TIMEZONE
 70
-8000
  9
$LIGHTGLYPHDISPLAY
280
    1
  9
$TILEMODELIGHTSYNCH
280
    1
  9
$SOLIDHIST
280
    1
  9
$SHOWHIST
280
    1
  9
$DWFFRAME
280
    2
  9
$DGNFRAME
280
    0
  9
$REALWORLDSCALE
290
    1
  9
$INTERFERECOLOR
 62
    1
  9
$CSHADOW
280
    0
  9
$SHADOWPLANELOCATION
 40
0
  0
ENDSEC
  0
SECTION
  2
CLASSES
  0
ENDSEC
  0
SECTION
  2
TABLES
  0
TABLE
  2
VPORT
  5
8
330
0
100
AcDbSymbolTable
 70
    1
  0
VPORT
  5
31
330
2
100
AcDbSymbolTableRecord
100
AcDbViewportTableRecord
  2
*ACTIVE
 70
    0
 10
0
 20
0
 11
1
 21
1
 12
319.6579293755193
 22
80.57357085805616
 13
0
 23
0
 14
10
 24
10
 15
10
 25
10
 16
0
 26
0
 36
1
 17
0
 27
0
 37
0
 40
383.259970993535
 41
2.546861564918315
 42
50
 43
0
 44
0
 50
0
 51
0
 71
    0
 72
  100
 73
    1
 74
    3
 75
    0
 76
    1
 77
    0
 78
    0
281
    0
 65
    1
110
0
120
0
130
0
111
1
121
0
131
0
112
0
122
1
132
0
 79
    0
146
0
348
10020
 60
    7
 61
    5
292
1
282
    1
141
0
142
0
 63
  250
421
3358443
  0
ENDTAB
  0
TABLE
  2
LTYPE
  5
5
330
0
100
AcDbSymbolTable
 70
    4
  0
LTYPE
  5
14
330
5
100
AcDbSymbolTableRecord
100
AcDbLinetypeTableRecord
  2
ByBlock
 70
    0
  3

 72
   65
 73
    0
 40
0
  0
LTYPE
  5
15
330
5
100
AcDbSymbolTableRecord
100
AcDbLinetypeTableRecord
  2
ByLayer
 70
    0
  3

 72
   65
 73
    0
 40
0
  0
LTYPE
  5
16
330
5
100
AcDbSymbolTableRecord
100
AcDbLinetypeTableRecord
  2
Continuous
 70
    0
  3
Solid line
 72
   65
 73
    0
 40
0
  0
LTYPE
  5
32
330
5
100
AcDbSymbolTableRecord
100
AcDbLinetypeTableRecord
  2
DOT
 70
    0
  3
Dot . . . . . . . . . . . . . . . . . . . . . .
 72
   65
 73
    2
 40
6.35
 49
0
 74
    0
 49
-6.35
 74
    0
  0
LTYPE
  5
33
330
5
100
AcDbSymbolTableRecord
100
AcDbLinetypeTableRecord
  2
DOTTINY
 70
    0
  3
Dot (.15x) .....................................
 72
   65
 73
    2
 40
0.9525
 49
0
 74
    0
 49
-0.9525
 74
    0
  0
LTYPE
  5
34
330
5
100
AcDbSymbolTableRecord
100
AcDbLinetypeTableRecord
  2
DOT2
 70
    0
  3
Dot (.5x) .....................................
 72
   65
 73
    2
 40
3.175
 49
0
 74
    0
 49
-3.175
 74
    0
  0
LTYPE
  5
35
330
5
100
AcDbSymbolTableRecord
100
AcDbLinetypeTableRecord
  2
DOTX2
 70
    0
  3
Dot (2x) .  .  .  .  .  .  .  .  .  .  .  .  .
 72
   65
 73
    2
 40
12.7
 49
0
 74
    0
 49
-12.7
 74
    0
  0
LTYPE
  5
36
330
5
100
AcDbSymbolTableRecord
100
AcDbLinetypeTableRecord
  2
DASHED
 70
    0
  3
Dashed _ _ _ _ _ _ _ _ _ _ _ _ _ _ _ _ _
 72
   65
 73
    2
 40
19.05
 49
12.7
 74
    0
 49
-6.35
 74
    0
  0
LTYPE
  5
37
330
5
100
AcDbSymbolTableRecord
100
AcDbLinetypeTableRecord
  2
DASHEDTINY
 70
    0
  3
Dashed (.15x) _ _ _ _ _ _ _ _ _ _ _ _ _ _ _ _ _
 72
   65
 73
    2
 40
2.8575
 49
1.905
 74
    0
 49
-0.9525
 74
    0
  0
LTYPE
  5
38
330
5
100
AcDbSymbolTableRecord
100
AcDbLinetypeTableRecord
  2
DASHED2
 70
    0
  3
Dashed (.5x) _ _ _ _ _ _ _ _ _ _ _ _ _ _ _ _ _
 72
   65
 73
    2
 40
9.524999999999999
 49
6.35
 74
    0
 49
-3.175
 74
    0
  0
LTYPE
  5
39
330
5
100
AcDbSymbolTableRecord
100
AcDbLinetypeTableRecord
  2
DASHEDX2
 70
    0
  3
Dashed (2x) ____  ____  ____  ____  ____  ___
 72
   65
 73
    2
 40
38.09999999999999
 49
25.4
 74
    0
 49
-12.7
 74
    0
  0
LTYPE
  5
3A
330
5
100
AcDbSymbolTableRecord
100
AcDbLinetypeTableRecord
  2
DASHDOT
 70
    0
  3
Dash dot __ . __ . __ . __ . __ . __ . __ . __
 72
   65
 73
    4
 40
25.4
 49
12.7
 74
    0
 49
-6.35
 74
    0
 49
0
 74
    0
 49
-6.35
 74
    0
  0
LTYPE
  5
3B
330
5
100
AcDbSymbolTableRecord
100
AcDbLinetypeTableRecord
  2
DASHDOTTINY
 70
    0
  3
Dash dot (.15x) _._._._._._._._._._._._._._._.
 72
   65
 73
    4
 40
3.81
 49
1.905
 74
    0
 49
-0.9525
 74
    0
 49
0
 74
    0
 49
-0.9525
 74
    0
  0
LTYPE
  5
3C
330
5
100
AcDbSymbolTableRecord
100
AcDbLinetypeTableRecord
  2
DASHDOT2
 70
    0
  3
Dash dot (.5x) _._._._._._._._._._._._._._._.
 72
   65
 73
    4
 40
12.7
 49
6.35
 74
    0
 49
-3.175
 74
    0
 49
0
 74
    0
 49
-3.175
 74
    0
  0
LTYPE
  5
3D
330
5
100
AcDbSymbolTableRecord
100
AcDbLinetypeTableRecord
  2
DASHDOTX2
 70
    0
  3
Dash dot (2x) ____  .  ____  .  ____  .  ___
 72
   65
 73
    4
 40
50.8
 49
25.4
 74
    0
 49
-12.7
 74
    0
 49
0
 74
    0
 49
-12.7
 74
    0
  0
LTYPE
  5
3E
330
5
100
AcDbSymbolTableRecord
100
AcDbLinetypeTableRecord
  2
DIVIDE
 70
    0
  3
Divide ____ . . ____ . . ____ . . ____ . . ____
 72
   65
 73
    6
 40
31.75
 49
12.7
 74
    0
 49
-6.35
 74
    0
 49
0
 74
    0
 49
-6.35
 74
    0
 49
0
 74
    0
 49
-6.35
 74
    0
  0
LTYPE
  5
3F
330
5
100
AcDbSymbolTableRecord
100
AcDbLinetypeTableRecord
  2
DIVIDETINY
 70
    0
  3
Divide (.15x) __..__..__..__..__..__..__..__.._
 72
   65
 73
    6
 40
4.7625
 49
1.905
 74
    0
 49
-0.9525
 74
    0
 49
0
 74
    0
 49
-0.9525
 74
    0
 49
0
 74
    0
 49
-0.9525
 74
    0
  0
LTYPE
  5
40
330
5
100
AcDbSymbolTableRecord
100
AcDbLinetypeTableRecord
  2
DIVIDE2
 70
    0
  3
Divide (.5x) __..__..__..__..__..__..__..__.._
 72
   65
 73
    6
 40
15.875
 49
6.35
 74
    0
 49
-3.175
 74
    0
 49
0
 74
    0
 49
-3.175
 74
    0
 49
0
 74
    0
 49
-3.175
 74
    0
  0
LTYPE
  5
41
330
5
100
AcDbSymbolTableRecord
100
AcDbLinetypeTableRecord
  2
DIVIDEX2
 70
    0
  3
Divide (2x) ________  .  .  ________  .  .  _
 72
   65
 73
    6
 40
63.5
 49
25.4
 74
    0
 49
-12.7
 74
    0
 49
0
 74
    0
 49
-12.7
 74
    0
 49
0
 74
    0
 49
-12.7
 74
    0
  0
LTYPE
  5
42
330
5
100
AcDbSymbolTableRecord
100
AcDbLinetypeTableRecord
  2
BORDER
 70
    0
  3
Border __ __ . __ __ . __ __ . __ __ . __ __ .
 72
   65
 73
    6
 40
44.45
 49
12.7
 74
    0
 49
-6.35
 74
    0
 49
12.7
 74
    0
 49
-6.35
 74
    0
 49
0
 74
    0
 49
-6.35
 74
    0
  0
LTYPE
  5
43
330
5
100
AcDbSymbolTableRecord
100
AcDbLinetypeTableRecord
  2
BORDERTINY
 70
    0
  3
Border (.15x) __.__.__.__.__.__.__.__.__.__.__.
 72
   65
 73
    6
 40
6.6675
 49
1.905
 74
    0
 49
-0.9525
 74
    0
 49
1.905
 74
    0
 49
-0.9525
 74
    0
 49
0
 74
    0
 49
-0.9525
 74
    0
  0
LTYPE
  5
44
330
5
100
AcDbSymbolTableRecord
100
AcDbLinetypeTableRecord
  2
BORDER2
 70
    0
  3
Border (.5x) __.__.__.__.__.__.__.__.__.__.__.
 72
   65
 73
    6
 40
22.225
 49
6.35
 74
    0
 49
-3.175
 74
    0
 49
6.35
 74
    0
 49
-3.175
 74
    0
 49
0
 74
    0
 49
-3.175
 74
    0
  0
LTYPE
  5
45
330
5
100
AcDbSymbolTableRecord
100
AcDbLinetypeTableRecord
  2
BORDERX2
 70
    0
  3
Border (2x) ____  ____  .  ____  ____  .  ___
 72
   65
 73
    6
 40
88.89999999999999
 49
25.4
 74
    0
 49
-12.7
 74
    0
 49
25.4
 74
    0
 49
-12.7
 74
    0
 49
0
 74
    0
 49
-12.7
 74
    0
  0
LTYPE
  5
46
330
5
100
AcDbSymbolTableRecord
100
AcDbLinetypeTableRecord
  2
CENTER
 70
    0
  3
Center ____ _ ____ _ ____ _ ____ _ ____ _ ____
 72
   65
 73
    4
 40
50.8
 49
31.75
 74
    0
 49
-6.35
 74
    0
 49
6.35
 74
    0
 49
-6.35
 74
    0
  0
LTYPE
  5
47
330
5
100
AcDbSymbolTableRecord
100
AcDbLinetypeTableRecord
  2
CENTERTINY
 70
    0
  3
Center (.15x) ___ _ ___ _ ___ _ ___ _ ___ _ ___
 72
   65
 73
    4
 40
7.619999999999999
 49
4.7625
 74
    0
 49
-0.9525
 74
    0
 49
0.9525
 74
    0
 49
-0.9525
 74
    0
  0
LTYPE
  5
48
330
5
100
AcDbSymbolTableRecord
100
AcDbLinetypeTableRecord
  2
CENTER2
 70
    0
  3
Center (.5x) ___ _ ___ _ ___ _ ___ _ ___ _ ___
 72
   65
 73
    4
 40
28.575
 49
19.05
 74
    0
 49
-3.175
 74
    0
 49
3.175
 74
    0
 49
-3.175
 74
    0
  0
LTYPE
  5
49
330
5
100
AcDbSymbolTableRecord
100
AcDbLinetypeTableRecord
  2
CENTERX2
 70
    0
  3
Center (2x) ________  __  ________  __  _____
 72
   65
 73
    4
 40
101.6
 49
63.5
 74
    0
 49
-12.7
 74
    0
 49
12.7
 74
    0
 49
-12.7
 74
    0
  0
ENDTAB
  0
TABLE
  2
LAYER
  5
2
330
0
100
AcDbSymbolTable
 70
    1
  0
LAYER
  5
10
330
2
100
AcDbSymbolTableRecord
100
AcDbLayerTableRecord
  2
0
 70
    0
 62
    7
  6
CONTINUOUS
370
   25
390
F
  0
LAYER
  5
4A
330
2
100
AcDbSymbolTableRecord
100
AcDbLayerTableRecord
  2
coordinates
 70
    0
 62
    6
  6
DASHED
370
    9
390
F
  0
LAYER
  5
4B
330
2
100
AcDbSymbolTableRecord
100
AcDbLayerTableRecord
  2
dim
 70
    1
 62
    5
  6
CONTINUOUS
370
    9
390
F
  0
LAYER
  5
4C
330
2
100
AcDbSymbolTableRecord
100
AcDbLayerTableRecord
  2
dummy
 70
    0
 62
    7
  6
DASHED2
370
    0
390
F
  0
LAYER
  5
4D
330
2
100
AcDbSymbolTableRecord
100
AcDbLayerTableRecord
  2
points_pos
 70
    0
 62
    1
  6
CONTINUOUS
370
    9
390
F
  0
ENDTAB
  0
TABLE
  2
STYLE
  5
3
330
0
100
AcDbSymbolTable
 70
    3
  0
STYLE
  5
4E
330
2
100
AcDbSymbolTableRecord
100
AcDbTextStyleTableRecord
  2
standard
 70
    0
 40
0
 41
1
 50
0
 71
    0
 42
1
  3
standard
  4

  0
ENDTAB
  0
TABLE
  2
VIEW
  5
6
330
0
100
AcDbSymbolTable
 70
    0
  0
ENDTAB
  0
TABLE
  2
UCS
  5
7
330
0
100
AcDbSymbolTable
 70
    0
  0
ENDTAB
  0
TABLE
  2
APPID
  5
9
330
0
100
AcDbSymbolTable
 70
    1
  0
APPID
  5
12
330
9
100
AcDbSymbolTableRecord
100
AcDbRegAppTableRecord
  2
ACAD
 70
    0
  0
APPID
  5
4F
330
9
100
AcDbSymbolTableRecord
100
AcDbRegAppTableRecord
  2
LibreCad
 70
    0
  0
ENDTAB
  0
TABLE
  2
DIMSTYLE
  5
A
330
0
100
AcDbSymbolTable
 70
    1
100
AcDbDimStyleTable
 71
    1
  0
DIMSTYLE
105
50
330
A
100
AcDbSymbolTableRecord
100
AcDbDimStyleTableRecord
  2
Standard
 70
    0
 40
2.5
 41
2.5
 42
0.625
 43
0.38
 44
1.25
 45
0
 46
0
 47
0
 48
0
 49
1
140
2.5
141
0.09
142
0
143
25.4
144
1
145
0
146
1
147
0.625
148
0
 71
    0
 72
    0
 73
    0
 74
    1
 75
    0
 76
    0
 77
    0
 78
    8
 79
    0
170
    0
171
    2
172
    0
173
    0
174
    0
175
    0
176
    0
177
    0
178
    0
179
    0
271
    2
272
    4
273
    2
274
    2
275
    0
276
    0
277
    2
278
   44
279
    0
280
    0
281
    0
282
    0
283
    1
284
    0
285
    0
286
    0
288
    0
289
    3
340
4E
  0
ENDTAB
  0
TABLE
  2
BLOCK_RECORD
  5
1
330
0
100
AcDbSymbolTable
 70
    2
  0
BLOCK_RECORD
  5
1F
330
1
100
AcDbSymbolTableRecord
100
AcDbBlockTableRecord
  2
*Model_Space
 70
    0
280
    1
281
    0
  0
BLOCK_RECORD
  5
1E
330
1
100
AcDbSymbolTableRecord
100
AcDbBlockTableRecord
  2
*Paper_Space
 70
    0
280
    1
281
    0
  0
BLOCK_RECORD
  5
51
330
1
100
AcDbSymbolTableRecord
100
AcDbBlockTableRecord
  2
*D8
 70
    0
280
    1
281
    0
  0
BLOCK_RECORD
  5
54
330
1
100
AcDbSymbolTableRecord
100
AcDbBlockTableRecord
  2
*D2
 70
    0
280
    1
281
    0
  0
BLOCK_RECORD
  5
57
330
1
100
AcDbSymbolTableRecord
100
AcDbBlockTableRecord
  2
*D13
 70
    0
280
    1
281
    0
  0
BLOCK_RECORD
  5
5A
330
1
100
AcDbSymbolTableRecord
100
AcDbBlockTableRecord
  2
*D10
 70
    0
280
    1
281
    0
  0
BLOCK_RECORD
  5
5D
330
1
100
AcDbSymbolTableRecord
100
AcDbBlockTableRecord
  2
*D3
 70
    0
280
    1
281
    0
  0
BLOCK_RECORD
  5
60
330
1
100
AcDbSymbolTableRecord
100
AcDbBlockTableRecord
  2
*D12
 70
    0
280
    1
281
    0
  0
BLOCK_RECORD
  5
63
330
1
100
AcDbSymbolTableRecord
100
AcDbBlockTableRecord
  2
*D1
 70
    0
280
    1
281
    0
  0
BLOCK_RECORD
  5
66
330
1
100
AcDbSymbolTableRecord
100
AcDbBlockTableRecord
  2
*D5
 70
    0
280
    1
281
    0
  0
BLOCK_RECORD
  5
69
330
1
100
AcDbSymbolTableRecord
100
AcDbBlockTableRecord
  2
*D9
 70
    0
280
    1
281
    0
  0
BLOCK_RECORD
  5
6C
330
1
100
AcDbSymbolTableRecord
100
AcDbBlockTableRecord
  2
*D7
 70
    0
280
    1
281
    0
  0
BLOCK_RECORD
  5
6F
330
1
100
AcDbSymbolTableRecord
100
AcDbBlockTableRecord
  2
*D4
 70
    0
280
    1
281
    0
  0
BLOCK_RECORD
  5
72
330
1
100
AcDbSymbolTableRecord
100
AcDbBlockTableRecord
  2
*D6
 70
    0
280
    1
281
    0
  0
BLOCK_RECORD
  5
75
330
1
100
AcDbSymbolTableRecord
100
AcDbBlockTableRecord
  2
*D11
 70
    0
280
    1
281
    0
  0
ENDTAB
  0
ENDSEC
  0
SECTION
  2
BLOCKS
  0
BLOCK
  5
20
330
1F
100
AcDbEntity
  8
0
100
AcDbBlockBegin
  2
*Model_Space
 70
    0
 10
0
 20
0
 30
0
  3
*Model_Space
  1

  0
ENDBLK
  5
21
330
1F
100
AcDbEntity
  8
0
100
AcDbBlockEnd
  0
BLOCK
  5
1C
330
1B
100
AcDbEntity
  8
0
100
AcDbBlockBegin
  2
*Paper_Space
 70
    0
 10
0
 20
0
 30
0
  3
*Paper_Space
  1

  0
ENDBLK
  5
1D
330
1F
100
AcDbEntity
  8
0
100
AcDbBlockEnd
  0
BLOCK
  5
52
330
51
100
AcDbEntity
  8
0
100
AcDbBlockBegin
  2
*D8
 70
    1
 10
0
 20
0
  3
*D8
  1

  0
LINE
  5
78
100
AcDbEntity
  8
points_pos
  6
CONTINUOUS
 62
    7
370
    0
100
AcDbLine
 10
160
 20
120
 11
170
 21
110
  0
SOLID
  5
79
100
AcDbEntity
  8
points_pos
  6
CONTINUOUS
 62
    7
370
    0
100
AcDbTrace
 10
160
 20
120
 30
0
 11
165.1553116434537
 21
116.3164768786218
 31
0
 12
163.6835231213782
 22
114.8446883565463
 32
0
 13
163.6835231213782
 23
114.8446883565463
 33
0
  0
LINE
  5
7A
100
AcDbEntity
  8
points_pos
  6
CONTINUOUS
 62
    7
370
    0
100
AcDbLine
 10
170
 20
110
 11
190
 21
110
  0
ENDBLK
  5
53
330
51
100
AcDbEntity
  8
0
100
AcDbBlockEnd
  0
BLOCK
  5
55
330
54
100
AcDbEntity
  8
0
100
AcDbBlockBegin
  2
*D2
 70
    1
 10
0
 20
0
  3
*D2
  1

  0
ARC
  5
7B
100
AcDbEntity
  8
dim
  6
ByBlock
 62
    0
370
   -2
100
AcDbCircle
 10
0
 20
-0
 40
85.44003745317531
100
AcDbArc
 50
323.130102354156
 51
36.86989764584401
  0
SOLID
  5
7C
100
AcDbEntity
  8
dim
  6
ByBlock
 62
    0
370
   -2
100
AcDbTrace
 10
68.35202996254024
 20
-51.26402247190519
 30
0
 11
71.06183988783675
 21
-45.53667484009331
 31
0
 12
72.77153196606673
 22
-46.72380411067168
 32
0
 13
72.77153196606673
 23
-46.72380411067168
 33
0
  0
SOLID
  5
7D
100
AcDbEntity
  8
dim
  6
ByBlock
 62
    0
370
   -2
100
AcDbTrace
 10
68.35202996254024
 20
51.26402247190517
 30
0
 11
72.77153196606675
 21
46.72380411067167
 31
0
 12
71.06183988783675
 22
45.5366748400933
 32
0
 13
71.06183988783675
 23
45.5366748400933
 33
0
  0
MTEXT
  5
7E
100
AcDbEntity
  8
dim
  6
CONTINUOUS
 62
    0
370
   -2
100
AcDbMText
 10
83.87753745317531
 20
-2.073473780441133e-14
 30
0
 40
6.25
 41
41.49305555555662
 71
    8
 72
    1
  1
Pole Pitch
  7
standard
210
0
220
0
230
1
 50
90
 73
    2
 44
1
  0
ENDBLK
  5
56
330
54
100
AcDbEntity
  8
0
100
AcDbBlockEnd
  0
BLOCK
  5
58
330
57
100
AcDbEntity
  8
0
100
AcDbBlockBegin
  2
*D13
 70
    1
 10
0
 20
0
  3
*D13
  1

  0
LINE
  5
7F
100
AcDbEntity
  8
points_pos
  6
CONTINUOUS
 62
    7
370
    0
100
AcDbLine
 10
180
 20
0
 11
190
 21
-10
  0
SOLID
  5
80
100
AcDbEntity
  8
points_pos
  6
CONTINUOUS
 62
    7
370
    0
100
AcDbTrace
 10
180
 20
0
 30
0
 11
185.1553116434537
 21
-3.683523121378181
 31
0
 12
183.6835231213782
 22
-5.155311643453665
 32
0
 13
183.6835231213782
 23
-5.155311643453665
 33
0
  0
LINE
  5
81
100
AcDbEntity
  8
points_pos
  6
CONTINUOUS
 62
    7
370
    0
100
AcDbLine
 10
190
 20
-10
 11
210
 21
-10
  0
ENDBLK
  5
59
330
57
100
AcDbEntity
  8
0
100
AcDbBlockEnd
  0
BLOCK
  5
5B
330
5A
100
AcDbEntity
  8
0
100
AcDbBlockBegin
  2
*D10
 70
    1
 10
0
 20
0
  3
*D10
  1

  0
LINE
  5
82
100
AcDbEntity
  8
points_pos
  6
CONTINUOUS
 62
    7
370
    0
100
AcDbLine
 10
138.868
 20
40
 11
130
 21
50
  0
SOLID
  5
83
100
AcDbEntity
  8
points_pos
  6
CONTINUOUS
 62
    7
370
    0
100
AcDbTrace
 10
138.868
 20
40
 30
0
 11
133.9425407367753
 21
43.98565324296661
 31
0
 12
135.499830122648
 22
45.36665747035855
 32
0
 13
135.499830122648
 23
45.36665747035855
 33
0
  0
LINE
  5
84
100
AcDbEntity
  8
points_pos
  6
CONTINUOUS
 62
    7
370
    0
100
AcDbLine
 10
130
 20
50
 11
110
 21
50
  0
ENDBLK
  5
5C
330
5A
100
AcDbEntity
  8
0
100
AcDbBlockEnd
  0
BLOCK
  5
5E
330
5D
100
AcDbEntity
  8
0
100
AcDbBlockBegin
  2
*D3
 70
    1
 10
0
 20
0
  3
*D3
  1

  0
LINE
  5
85
100
AcDbEntity
  8
dim
  6
ByBlock
 62
    0
370
   -2
100
AcDbLine
 10
120
 20
40
 11
120
 21
-40
  0
MTEXT
  5
86
100
AcDbEntity
  8
dim
  6
CONTINUOUS
 62
    0
370
   -2
100
AcDbMText
 10
115.3125
 20
5.740342283542393e-16
 30
0
 40
6.25
 41
11.63194444444444
 71
    5
 72
    1
  1
W0
  7
standard
210
0
220
0
230
1
 50
90
 73
    2
 44
1
  0
SOLID
  5
87
100
AcDbEntity
  8
dim
  6
ByBlock
 62
    0
370
   -2
100
AcDbTrace
 10
120
 20
40
 30
0
 11
121.0407116444321
 21
33.75
 31
0
 12
118.9592883555679
 22
33.75
 32
0
 13
118.9592883555679
 23
33.75
 33
0
  0
SOLID
  5
88
100
AcDbEntity
  8
dim
  6
ByBlock
 62
    0
370
   -2
100
AcDbTrace
 10
120
 20
-40
 30
0
 11
118.9592883555679
 21
-33.75
 31
0
 12
121.0407116444321
 22
-33.75
 32
0
 13
121.0407116444321
 23
-33.75
 33
0
  0
LINE
  5
89
100
AcDbEntity
  8
dim
  6
ByBlock
 62
    0
370
   -2
100
AcDbLine
 10
128.4375
 20
40
 11
116.875
 21
40
  0
LINE
  5
8A
100
AcDbEntity
  8
dim
  6
ByBlock
 62
    0
370
   -2
100
AcDbLine
 10
128.4375
 20
-40
 11
116.875
 21
-40
  0
ENDBLK
  5
5F
330
5D
100
AcDbEntity
  8
0
100
AcDbBlockEnd
  0
BLOCK
  5
61
330
60
100
AcDbEntity
  8
0
100
AcDbBlockBegin
  2
*D12
 70
    1
 10
0
 20
0
  3
*D12
  1

  0
LINE
  5
8B
100
AcDbEntity
  8
points_pos
  6
CONTINUOUS
 62
    7
370
    0
100
AcDbLine
 10
180
 20
40
 11
190
 21
50
  0
SOLID
  5
8C
100
AcDbEntity
  8
points_pos
  6
CONTINUOUS
 62
    7
370
    0
100
AcDbTrace
 10
180
 20
40
 30
0
 11
183.6835231213782
 21
45.15531164345366
 31
0
 12
185.1553116434537
 22
43.68352312137818
 32
0
 13
185.1553116434537
 23
43.68352312137818
 33
0
  0
LINE
  5
8D
100
AcDbEntity
  8
points_pos
  6
CONTINUOUS
 62
    7
370
    0
100
AcDbLine
 10
190
 20
50
 11
210
 21
50
  0
ENDBLK
  5
62
330
60
100
AcDbEntity
  8
0
100
AcDbBlockEnd
  0
BLOCK
  5
64
330
63
100
AcDbEntity
  8
0
100
AcDbBlockBegin
  2
*D1
 70
    1
 10
0
 20
0
  3
*D1
  1

  0
SOLID
  5
8E
100
AcDbEntity
  8
dim
  6
ByBlock
 62
    0
370
   -2
100
AcDbTrace
 10
146.5586983252599
 20
136.0902198734556
 30
0
 11
142.6868923851736
 21
131.0747737827106
 31
0
 12
141.2705856200174
 22
132.6000272221096
 32
0
 13
141.2705856200174
 23
132.6000272221096
 33
0
  0
LINE
  5
8F
100
AcDbEntity
  8
dim
  6
ByBlock
 62
    0
370
   -2
100
AcDbLine
 10
0
 20
0
 11
146.5586983252599
 21
136.0902198734556
  0
MTEXT
  5
90
100
AcDbEntity
  8
dim
  6
CONTINUOUS
 62
    0
370
   -2
100
AcDbMText
 10
70.08973463434583
 20
71.48007942872607
 30
0
 40
6.25
 41
53.29861432540697
 71
    5
 72
    1
  1
Rotor Radius
  7
standard
210
0
220
0
230
1
 50
42.87890360333854
 73
    2
 44
1
  0
ENDBLK
  5
65
330
63
100
AcDbEntity
  8
0
100
AcDbBlockEnd
  0
BLOCK
  5
67
330
66
100
AcDbEntity
  8
0
100
AcDbBlockBegin
  2
*D5
 70
    1
 10
0
 20
0
  3
*D5
  1

  0
LINE
  5
91
100
AcDbEntity
  8
dim
  6
ByBlock
 62
    0
370
   -2
100
AcDbLine
 10
138.868
 20
-70
 11
180
 21
-70
  0
MTEXT
  5
92
100
AcDbEntity
  8
dim
  6
CONTINUOUS
 62
    0
370
   -2
100
AcDbMText
 10
159.434
 20
-65.3125
 30
0
 40
6.25
 41
8.333333333333332
 71
    5
 72
    1
  1
H2
  7
standard
210
0
220
0
230
1
 50
0
 73
    2
 44
1
  0
SOLID
  5
93
100
AcDbEntity
  8
dim
  6
ByBlock
 62
    0
370
   -2
100
AcDbTrace
 10
138.868
 20
-70
 30
0
 11
145.118
 21
-68.95928835556791
 31
0
 12
145.118
 22
-71.04071164443211
 32
0
 13
145.118
 23
-71.04071164443211
 33
0
  0
SOLID
  5
94
100
AcDbEntity
  8
dim
  6
ByBlock
 62
    0
370
   -2
100
AcDbTrace
 10
180
 20
-70
 30
0
 11
173.75
 21
-71.04071164443211
 31
0
 12
173.75
 22
-68.95928835556789
 32
0
 13
173.75
 23
-68.95928835556789
 33
0
  0
LINE
  5
95
100
AcDbEntity
  8
dim
  6
ByBlock
 62
    0
370
   -2
100
AcDbLine
 10
138.868
 20
-41.5625
 11
138.868
 21
-73.125
  0
LINE
  5
96
100
AcDbEntity
  8
dim
  6
ByBlock
 62
    0
370
   -2
100
AcDbLine
 10
180
 20
-41.5625
 11
180
 21
-73.125
  0
ENDBLK
  5
68
330
66
100
AcDbEntity
  8
0
100
AcDbBlockEnd
  0
BLOCK
  5
6A
330
69
100
AcDbEntity
  8
0
100
AcDbBlockBegin
  2
*D9
 70
    1
 10
0
 20
0
  3
*D9
  1

  0
LINE
  5
97
100
AcDbEntity
  8
points_pos
  6
CONTINUOUS
 62
    7
370
    0
100
AcDbLine
 10
138.8679245283019
 20
104.1509433962264
 11
130
 21
110
  0
SOLID
  5
98
100
AcDbEntity
  8
points_pos
  6
CONTINUOUS
 62
    7
370
    0
100
AcDbTrace
 10
138.8679245283019
 20
104.1509433962264
 30
0
 11
133.0775849202231
 21
106.7234029099934
 31
0
 12
134.2236056469141
 22
108.4609182052991
 32
0
 13
134.2236056469141
 23
108.4609182052991
 33
0
  0
LINE
  5
99
100
AcDbEntity
  8
points_pos
  6
CONTINUOUS
 62
    7
370
    0
100
AcDbLine
 10
130
 20
110
 11
110
 21
110
  0
ENDBLK
  5
6B
330
69
100
AcDbEntity
  8
0
100
AcDbBlockEnd
  0
BLOCK
  5
6D
330
6C
100
AcDbEntity
  8
0
100
AcDbBlockBegin
  2
*D7
 70
    1
 10
0
 20
0
  3
*D7
  1

  0
LINE
  5
9A
100
AcDbEntity
  8
points_pos
  6
CONTINUOUS
 62
    7
370
    0
100
AcDbLine
 10
130
 20
0
 11
120
 21
-10
  0
SOLID
  5
9B
100
AcDbEntity
  8
points_pos
  6
CONTINUOUS
 62
    7
370
    0
100
AcDbTrace
 10
130
 20
0
 30
0
 11
126.3164768786218
 21
-5.155311643453664
 31
0
 12
124.8446883565463
 22
-3.68352312137818
 32
0
 13
124.8446883565463
 23
-3.68352312137818
 33
0
  0
LINE
  5
9C
100
AcDbEntity
  8
points_pos
  6
CONTINUOUS
 62
    7
370
    0
100
AcDbLine
 10
120
 20
-10
 11
100
 21
-10
  0
ENDBLK
  5
6E
330
6C
100
AcDbEntity
  8
0
100
AcDbBlockEnd
  0
BLOCK
  5
70
330
6F
100
AcDbEntity
  8
0
100
AcDbBlockBegin
  2
*D4
 70
    1
 10
0
 20
0
  3
*D4
  1

  0
LINE
  5
9D
100
AcDbEntity
  8
dim
  6
ByBlock
 62
    0
370
   -2
100
AcDbLine
 10
117.5
 20
-70
 11
151.368
 21
-70
  0
MTEXT
  5
9E
100
AcDbEntity
  8
dim
  6
CONTINUOUS
 62
    0
370
   -2
100
AcDbMText
 10
134.434
 20
-65.3125
 30
0
 40
6.25
 41
6.944444444444445
 71
    5
 72
    1
  1
H1
  7
standard
210
0
220
0
230
1
 50
0
 73
    2
 44
1
  0
SOLID
  5
9F
100
AcDbEntity
  8
dim
  6
ByBlock
 62
    0
370
   -2
100
AcDbTrace
 10
130
 20
-70
 30
0
 11
123.75
 21
-71.04071164443211
 31
0
 12
123.75
 22
-68.95928835556789
 32
0
 13
123.75
 23
-68.95928835556789
 33
0
  0
SOLID
  5
A0
100
AcDbEntity
  8
dim
  6
ByBlock
 62
    0
370
   -2
100
AcDbTrace
 10
138.868
 20
-70
 30
0
 11
145.118
 21
-68.95928835556791
 31
0
 12
145.118
 22
-71.04071164443211
 32
0
 13
145.118
 23
-71.04071164443211
 33
0
  0
LINE
  5
A1
100
AcDbEntity
  8
dim
  6
ByBlock
 62
    0
370
   -2
100
AcDbLine
 10
130
 20
-41.5625
 11
130
 21
-73.125
  0
LINE
  5
A2
100
AcDbEntity
  8
dim
  6
ByBlock
 62
    0
370
   -2
100
AcDbLine
 10
138.868
 20
-41.5625
 11
138.868
 21
-73.125
  0
ENDBLK
  5
71
330
6F
100
AcDbEntity
  8
0
100
AcDbBlockEnd
  0
BLOCK
  5
73
330
72
100
AcDbEntity
  8
0
100
AcDbBlockBegin
  2
*D6
 70
    1
 10
0
 20
0
  3
*D6
  1

  0
LINE
  5
A3
100
AcDbEntity
  8
dim
  6
ByBlock
 62
    0
370
   -2
100
AcDbLine
 10
138.868
 20
60
 11
200
 21
60
  0
MTEXT
  5
A4
100
AcDbEntity
  8
dim
  6
CONTINUOUS
 62
    0
370
   -2
100
AcDbMText
 10
169.434
 20
64.6875
 30
0
 40
6.25
 41
8.333333333333332
 71
    5
 72
    1
  1
H0
  7
standard
210
0
220
0
230
1
 50
0
 73
    2
 44
1
  0
SOLID
  5
A5
100
AcDbEntity
  8
dim
  6
ByBlock
 62
    0
370
   -2
100
AcDbTrace
 10
138.868
 20
60
 30
0
 11
145.118
 21
61.0407116444321
 31
0
 12
145.118
 22
58.9592883555679
 32
0
 13
145.118
 23
58.9592883555679
 33
0
  0
SOLID
  5
A6
100
AcDbEntity
  8
dim
  6
ByBlock
 62
    0
370
   -2
100
AcDbTrace
 10
200
 20
60
 30
0
 11
193.75
 21
58.9592883555679
 31
0
 12
193.75
 22
61.0407116444321
 32
0
 13
193.75
 23
61.0407116444321
 33
0
  0
LINE
  5
A7
100
AcDbEntity
  8
dim
  6
ByBlock
 62
    0
370
   -2
100
AcDbLine
 10
138.868
 20
41.5625
 11
138.868
 21
63.125
  0
LINE
  5
A8
100
AcDbEntity
  8
dim
  6
ByBlock
 62
    0
370
   -2
100
AcDbLine
 10
200
 20
1.5625
 11
200
 21
63.125
  0
ENDBLK
  5
74
330
72
100
AcDbEntity
  8
0
100
AcDbBlockEnd
  0
BLOCK
  5
76
330
75
100
AcDbEntity
  8
0
100
AcDbBlockBegin
  2
*D11
 70
    1
 10
0
 20
0
  3
*D11
  1

  0
LINE
  5
A9
100
AcDbEntity
  8
points_pos
  6
CONTINUOUS
 62
    7
370
    0
100
AcDbLine
 10
130
 20
40
 11
120
 21
30
  0
SOLID
  5
AA
100
AcDbEntity
  8
points_pos
  6
CONTINUOUS
 62
    7
370
    0
100
AcDbTrace
 10
130
 20
40
 30
0
 11
126.3164768786218
 21
34.84468835654634
 31
0
 12
124.8446883565463
 22
36.31647687862182
 32
0
 13
124.8446883565463
 23
36.31647687862182
 33
0
  0
LINE
  5
AB
100
AcDbEntity
  8
points_pos
  6
CONTINUOUS
 62
    7
370
    0
100
AcDbLine
 10
120
 20
30
 11
100
 21
30
  0
ENDBLK
  5
77
330
75
100
AcDbEntity
  8
0
100
AcDbBlockEnd
  0
ENDSEC
  0
SECTION
  2
ENTITIES
  0
HATCH
  5
AC
100
AcDbEntity
  8
0
  6
ByLayer
 62
  256
370
   -1
100
AcDbHatch
 10
0
 20
0
 30
0
210
0
220
0
230
1
  2
ansi31
 70
    0
 71
    0
 91
    1
 92
    0
 93
    5
 72
    1
 10
130
 20
-40
 11
130
 21
0
 72
    1
 10
130
 20
0
 11
130
 21
40
 72
    1
 10
130
 20
40
 11
180
 21
40
 72
    1
 10
180
 20
40
 11
180
 21
-40
 72
    1
 10
180
 20
-40
 11
130
 21
-40
 97
    0
 75
    0
 76
    1
 52
0
 41
1
 77
    0
 78
    0
 98
    0
  0
ARC
  5
AD
100
AcDbEntity
  8
0
  6
ByLayer
 62
  256
370
   -1
100
AcDbCircle
 10
0
 20
0
 40
0
100
AcDbArc
 50
0
 51
0
  0
LINE
  5
AE
100
AcDbEntity
  8
coordinates
  6
ByLayer
 62
  256
370
   -1
100
AcDbLine
 10
0
 20
0
 11
230
 21
0
  0
LINE
  5
AF
100
AcDbEntity
  8
coordinates
  6
ByLayer
 62
  256
370
   -1
100
AcDbLine
 10
230
 20
0
 11
220
 21
4
  0
LINE
  5
B0
100
AcDbEntity
  8
coordinates
  6
ByLayer
 62
  256
370
   -1
100
AcDbLine
 10
220
 20
4
 11
220
 21
-4
  0
LINE
  5
B1
100
AcDbEntity
  8
coordinates
  6
ByLayer
 62
  256
370
   -1
100
AcDbLine
 10
220
 20
-4
 11
230
 21
0
  0
LINE
  5
B2
100
AcDbEntity
  8
coordinates
  6
ByLayer
 62
  256
370
   -1
100
AcDbLine
 10
0
 20
0
 11
0
 21
100
  0
LINE
  5
B3
100
AcDbEntity
  8
coordinates
  6
ByLayer
 62
  256
370
   -1
100
AcDbLine
 10
0
 20
100
 11
4
 21
90
  0
LINE
  5
B4
100
AcDbEntity
  8
coordinates
  6
ByLayer
 62
  256
370
   -1
100
AcDbLine
 10
4
 20
90
 11
-4
 21
90
  0
LINE
  5
B5
100
AcDbEntity
  8
coordinates
  6
ByLayer
 62
  256
370
   -1
100
AcDbLine
 10
-4
 20
90
 11
0
 21
100
  0
ARC
  5
B6
100
AcDbEntity
  8
dummy
  6
ByLayer
 62
  256
370
   -1
100
AcDbCircle
 10
0
 20
0
 40
200
100
AcDbArc
 50
320
 51
40
  0
LINE
  5
B7
100
AcDbEntity
  8
dummy
  6
ByLayer
 62
  256
370
   -1
100
AcDbLine
 10
0
 20
0
 11
160
 21
120
  0
LINE
  5
B8
100
AcDbEntity
  8
dummy
  6
ByLayer
 62
  256
370
   -1
100
AcDbLine
 10
0
 20
0
 11
160
 21
-120
  0
LINE
  5
B9
100
AcDbEntity
  8
0
  6
ByLayer
 62
  256
370
   -1
100
AcDbLine
 10
160
 20
-120
 11
138.8679245283019
 21
-104.1509433962264
  0
LINE
  5
BA
100
AcDbEntity
  8
0
  6
CONTINUOUS
 62
  256
370
   40
100
AcDbLine
 10
138.868
 20
-104.151
 11
138.868
 21
-40
  0
LINE
  5
BB
100
AcDbEntity
  8
0
  6
ByLayer
 62
  256
370
   -1
100
AcDbLine
 10
130
 20
-40
 11
130
 21
0
  0
LINE
  5
BC
100
AcDbEntity
  8
0
  6
ByLayer
 62
  256
370
   -1
100
AcDbLine
 10
160
 20
120
 11
138.8679245283019
 21
104.1509433962264
  0
LINE
  5
BD
100
AcDbEntity
  8
0
  6
CONTINUOUS
 62
  256
370
   40
100
AcDbLine
 10
138.868
 20
104.151
 11
138.868
 21
40
  0
LINE
  5
BE
100
AcDbEntity
  8
0
  6
ByLayer
 62
  256
370
   -1
100
AcDbLine
 10
130
 20
40
 11
130
 21
0
  0
LINE
  5
BF
100
AcDbEntity
  8
0
  6
ByLayer
 62
  256
370
   -1
100
AcDbLine
 10
180
 20
-40
 11
180
 21
40
  0
LINE
  5
C0
100
AcDbEntity
  8
0
  6
ByLayer
 62
  256
370
   -1
100
AcDbLine
 10
130
 20
40
 11
180
 21
40
  0
LINE
  5
C1
100
AcDbEntity
  8
0
  6
ByLayer
 62
  256
370
   -1
100
AcDbLine
 10
180
 20
-40
 11
130
 21
-40
  0
DIMENSION
  5
C2
100
AcDbEntity
  8
dim
  6
ByLayer
 62
  256
370
   -1
100
AcDbDimension
  2
*D1
 10
0
 20
0
 30
0
 11
70.08973463434583
 21
71.48007942872607
 31
0
 70
   36
  1
Rotor Radius
 71
    5
  3
Standard
 53
0
210
0
220
0
230
1
100
AcDbRadialDimension
 15
146.5586983252599
 25
136.0902198734556
 35
0
 40
0
  0
DIMENSION
  5
C3
100
AcDbEntity
  8
dim
  6
ByLayer
 62
  256
370
   -1
100
AcDbDimension
  2
*D2
 10
160
 20
120
 30
0
 11
0
 21
0
 31
0
 70
   34
  1
Pole Pitch
 71
    5
  3
Standard
 53
0
210
0
220
0
230
1
100
AcDb2LineAngularDimension
 13
0
 23
0
 33
0
 14
160
 24
-120
 34
0
 15
0
 25
0
 35
0
 16
80
 26
30
 36
0
  0
DIMENSION
  5
C4
100
AcDbEntity
  8
dim
  6
ByLayer
 62
  256
370
   -1
100
AcDbDimension
  2
*D3
 10
120
 20
-40
 30
0
 11
115.3125
 21
5.740342283542393e-16
 31
0
 70
   32
  1
W0
 71
    5
  3
Standard
 53
0
210
0
220
0
230
1
100
AcDbAlignedDimension
 13
130
 23
40
 33
0
 14
130
 24
-40
 34
0
 50
90
100
AcDbRotatedDimension
  0
DIMENSION
  5
C5
100
AcDbEntity
  8
dim
  6
ByLayer
 62
  256
370
   -1
100
AcDbDimension
  2
*D4
 10
138.868
 20
-70
 30
0
 11
134.434
 21
-65.3125
 31
0
 70
   32
  1
H1
 71
    5
  3
Standard
 53
0
210
0
220
0
230
1
100
AcDbAlignedDimension
 13
130
 23
-40
 33
0
 14
138.868
 24
-40
 34
0
100
AcDbRotatedDimension
  0
DIMENSION
  5
C6
100
AcDbEntity
  8
dim
  6
ByLayer
 62
  256
370
   -1
100
AcDbDimension
  2
*D5
 10
180
 20
-70
 30
0
 11
159.434
 21
-65.3125
 31
0
 70
   32
  1
H2
 71
    5
  3
Standard
 53
0
210
0
220
0
230
1
100
AcDbAlignedDimension
 13
138.868
 23
-40
 33
0
 14
180
 24
-40
 34
0
100
AcDbRotatedDimension
  0
DIMENSION
  5
C7
100
AcDbEntity
  8
dim
  6
ByLayer
 62
  256
370
   -1
100
AcDbDimension
  2
*D6
 10
200
 20
60
 30
0
 11
169.434
 21
64.6875
 31
0
 70
   32
  1
H0
 71
    5
  3
Standard
 53
0
210
0
220
0
230
1
100
AcDbAlignedDimension
 13
138.868
 23
40
 33
0
 14
200
 24
0
 34
0
100
AcDbRotatedDimension
  0
LEADER
  5
C8
100
AcDbEntity
  8
points_pos
  6
ByLayer
 62
  256
370
   -1
100
AcDbLeader
  3
Standard
 71
    1
 72
    0
 73
    3
 74
    0
 75
    0
 40
1
 41
10
 76
3
 76
3
 10
130
 20
0
 30
0
 10
120
 20
-10
 30
0
 10
100
 20
-10
 30
0
  0
LEADER
  5
C9
100
AcDbEntity
  8
points_pos
  6
ByLayer
 62
  256
370
   -1
100
AcDbLeader
  3
Standard
 71
    1
 72
    0
 73
    3
 74
    0
 75
    0
 40
1
 41
10
 76
3
 76
3
 10
160
 20
120
 30
0
 10
170
 20
110
 30
0
 10
190
 20
110
 30
0
  0
LEADER
  5
CA
100
AcDbEntity
  8
points_pos
  6
ByLayer
 62
  256
370
   -1
100
AcDbLeader
  3
Standard
 71
    1
 72
    0
 73
    3
 74
    0
 75
    0
 40
1
 41
10
 76
3
 76
3
 10
138.8679245283019
 20
104.1509433962264
 30
0
 10
130
 20
110
 30
0
 10
110
 20
110
 30
0
  0
LEADER
  5
CB
100
AcDbEntity
  8
points_pos
  6
ByLayer
 62
  256
370
   -1
100
AcDbLeader
  3
Standard
 71
    1
 72
    0
 73
    3
 74
    0
 75
    0
 40
1
 41
10
 76
3
 76
3
 10
138.868
 20
40
 30
0
 10
130
 20
50
 30
0
 10
110
 20
50
 30
0
  0
LEADER
  5
CC
100
AcDbEntity
  8
points_pos
  6
ByLayer
 62
  256
370
   -1
100
AcDbLeader
  3
Standard
 71
    1
 72
    0
 73
    3
 74
    0
 75
    0
 40
1
 41
10
 76
3
 76
3
 10
130
 20
40
 30
0
 10
120
 20
30
 30
0
 10
100
 20
30
 30
0
  0
LEADER
  5
CD
100
AcDbEntity
  8
points_pos
  6
ByLayer
 62
  256
370
   -1
100
AcDbLeader
  3
Standard
 71
    1
 72
    0
 73
    3
 74
    0
 75
    0
 40
1
 41
10
 76
3
 76
3
 10
180
 20
40
 30
0
 10
190
 20
50
 30
0
 10
210
 20
50
 30
0
  0
LEADER
  5
CE
100
AcDbEntity
  8
points_pos
  6
ByLayer
 62
  256
370
   -1
100
AcDbLeader
  3
Standard
 71
    1
 72
    0
 73
    3
 74
    0
 75
    0
 40
1
 41
10
 76
3
 76
3
 10
180
 20
0
 30
0
 10
190
 20
-10
 30
0
 10
210
 20
-10
 30
0
  0
TEXT
  5
CF
100
AcDbEntity
  8
points_pos
  6
ByLayer
 62
  256
370
   -1
100
AcDbText
 10
190
 20
110
 30
0
 40
1
  1
a
 50
0
 41
1
 51
0
  7

 71
    0
210
0
220
0
230
1
100
AcDbText
  0
TEXT
  5
D0
100
AcDbEntity
  8
points_pos
  6
ByLayer
 62
  256
370
   -1
100
AcDbText
 10
190
 20
110
 30
0
 40
1
  1
a
 50
0
 41
1
 51
0
  7

 71
    0
210
0
220
0
230
1
100
AcDbText
  0
TEXT
  5
D1
100
AcDbEntity
  8
points_pos
  6
ByLayer
 62
  256
370
   -1
100
AcDbText
 10
190
 20
110
 30
0
 40
1
  1
a
 50
0
 41
1
 51
0
  7

 71
    0
210
0
220
0
230
1
100
AcDbText
  0
TEXT
  5
D2
100
AcDbEntity
  8
points_pos
  6
ByLayer
 62
  256
370
   -1
100
AcDbText
 10
190
 20
110
 30
0
 40
1
  1
a
 50
0
 41
1
 51
0
  7

 71
    0
210
0
220
0
230
1
100
AcDbText
  0
TEXT
  5
D3
100
AcDbEntity
  8
points_pos
  6
ByLayer
 62
  256
370
   -1
100
AcDbText
 10
110
 20
50
 30
0
 40
7
  1
c
 50
0
 41
1
 51
0
  7
standard
 71
    0
 72
    2
 11
110
 21
50
 31
0
210
0
220
0
230
1
100
AcDbText
 73
    1
  0
TEXT
  5
D4
100
AcDbEntity
  8
points_pos
  6
ByLayer
 62
  256
370
   -1
100
AcDbText
 10
110
 20
110
 30
0
 40
7
  1
b
 50
0
 41
1
 51
0
  7
standard
 71
    0
 72
    2
 11
110
 21
110
 31
0
210
0
220
0
230
1
100
AcDbText
 73
    1
  0
TEXT
  5
D5
100
AcDbEntity
  8
points_pos
  6
ByLayer
 62
  256
370
   -1
100
AcDbText
 10
190
 20
110
 30
0
 40
7
  1
a
 50
0
 41
1
 51
0
  7
standard
 71
    0
 11
190
 21
110
 31
0
210
0
220
0
230
1
100
AcDbText
 73
    1
  0
TEXT
  5
D6
100
AcDbEntity
  8
points_pos
  6
ByLayer
 62
  256
370
   -1
100
AcDbText
 10
100
 20
30
 30
0
 40
7
  1
d
 50
0
 41
1
 51
0
  7
standard
 71
    0
 72
    2
 11
100
 21
30
 31
0
210
0
220
0
230
1
100
AcDbText
 73
    1
  0
TEXT
  5
D7
100
AcDbEntity
  8
points_pos
  6
ByLayer
 62
  256
370
   -1
100
AcDbText
 10
100
 20
-10
 30
0
 40
7
  1
e
 50
0
 41
1
 51
0
  7
standard
 71
    0
 72
    2
 11
100
 21
-10
 31
0
210
0
220
0
230
1
100
AcDbText
 73
    1
  0
TEXT
  5
D8
100
AcDbEntity
  8
points_pos
  6
ByLayer
 62
  256
370
   -1
100
AcDbText
 10
210
 20
-10
 30
0
 40
7
  1
f
 50
0
 41
1
 51
0
  7
standard
 71
    0
 11
210
 21
-10
 31
0
210
0
220
0
230
1
100
AcDbText
 73
    1
  0
TEXT
  5
D9
100
AcDbEntity
  8
points_pos
  6
ByLayer
 62
  256
370
   -1
100
AcDbText
 10
210
 20
50
 30
0
 40
7
  1
g
 50
0
 41
1
 51
0
  7
standard
 71
    0
 11
210
 21
50
 31
0
210
0
220
0
230
1
100
AcDbText
 73
    3
  0
ENDSEC
  0
SECTION
  2
OBJECTS
  0
DICTIONARY
  5
C
330
0
100
AcDbDictionary
281
    1
  3
ACAD_GROUP
350
D
  0
DICTIONARY
  5
D
330
C
100
AcDbDictionary
281
    1
  0
PLOTSETTINGS
  5
DA
100
AcDbPlotSettings
  6
1x1
 40
0
 41
0
 42
0
 43
0
  0
ENDSEC
  0
EOF
